<?xml version="1.0" encoding="utf-8"?>
<!-- Generator: Adobe Illustrator 15.0.0, SVG Export Plug-In . SVG Version: 6.00 Build 0)  -->
<!DOCTYPE svg PUBLIC "-//W3C//DTD SVG 1.1//EN" "http://www.w3.org/Graphics/SVG/1.1/DTD/svg11.dtd">
<svg version="1.1" id="图层_1" xmlns="http://www.w3.org/2000/svg" xmlns:xlink="http://www.w3.org/1999/xlink" x="0px" y="0px"
	 width="1280px" height="2160px" viewBox="0 0 1280 2160" enable-background="new 0 0 1280 2160" xml:space="preserve">
<path fill="#F5F5E9" stroke="#C69C6D" stroke-width="2" stroke-miterlimit="10" d="M131.624,227.097h701.65v-59.954h333.4v347.731
	H892.519v231.25h274.155v453.935H1017.98v54.816c0,0,148.941-2.393,148.941,318.77c0,321.166-160.558,321.166-160.558,321.166
	v122.332h-825.95v-89.073h-48.79V227.097z"/>
<polygon fill="#FFFFFF" stroke="#E6E6E6" stroke-width="2" stroke-miterlimit="10" points="934.991,1637.805 826.025,1699.256 
	718.325,1635.614 719.589,1510.521 828.555,1449.071 936.256,1512.713 "/>
<rect x="172.624" y="1508.143" fill="#FFFFFF" stroke="#E6E6E6" stroke-width="2" stroke-miterlimit="10" width="248" height="86"/>
<path fill="#FFFFFF" stroke="#E6E6E6" stroke-width="2" stroke-miterlimit="10" d="M311.624,822.482l184.09,79.312l-40.608,72.292
	l243.648,131.3c0,0,116.409-223.345,27.071-282.903l-56.851,79.312l-51.438-27.875l69.034-69.033c0,0-87.984-128.592-193.564-79.863
	C387.425,773.752,311.624,822.482,311.624,822.482z"/>
<polygon fill="#FFFFFF" stroke="#E6E6E6" stroke-width="2" stroke-miterlimit="10" points="567.887,1092.441 759.718,1193.656 
	699.592,1394.077 510.624,1479.972 "/>
<polygon fill="#DE5A2C" points="191.624,185.143 155.624,269.143 191.624,233.143 227.624,269.143 "/>
<g>
	<path fill="none" stroke="#DE5A2C" stroke-width="4" stroke-miterlimit="10" d="M174.112,170.471
		c2.832-0.192,4.176-1.152,4.56-2.497c0.384-1.44,0.528-4.08,0.528-8.929v-10.417c0-4.272-0.24-4.032-1.104-5.088
		c-0.816-0.96-1.824-1.488-4.369-1.776v-0.672h5.905l22.178,25.346h0.144v-13.681c0-9.361-0.048-10.609-5.665-10.993v-0.672h11.905
		v0.672c-2.785,0.24-3.984,1.152-4.417,2.544c-0.432,1.488-0.48,3.937-0.48,8.449v18.722h-0.528l-22.13-25.202h-0.096v12.769
		c0.048,4.849,0.096,7.489,0.432,8.833c0.432,1.488,1.873,2.352,5.089,2.592v0.672h-11.953V170.471z"/>
</g>
<g>
	<path fill="#808080" d="M706.624,881.143c0,6.627-5.373,12-12,12h-47c-6.627,0-12-5.373-12-12v-48c0-6.627,5.373-12,12-12h47
		c6.627,0,12,5.373,12,12V881.143z"/>
	<path fill="#FFFFFF" d="M653.389,876.731c0,1.309,0.639,1.964,1.917,1.964c1.277,0,1.917-0.655,1.917-1.964v-17.673h1.964v17.673
		c0,1.309,0.639,1.964,1.916,1.964c1.278,0,1.917-0.655,1.917-1.964v-30.109h0.936v10.847c0,0.686,0.233,1.185,0.701,1.496
		c0.468,0.312,0.951,0.312,1.449,0c0.499-0.312,0.748-0.81,0.748-1.496V845.78c0-1.247-0.421-2.213-1.262-2.898
		c-0.842-0.686-2.011-1.029-3.507-1.029h-7.668c-1.434,0-2.603,0.312-3.507,0.935c-0.903,0.624-1.355,1.59-1.355,2.899v12.437
		c0,0.561,0.249,0.966,0.748,1.215c0.499,0.25,0.981,0.25,1.449,0c0.468-0.249,0.701-0.654,0.701-1.215v-11.501h0.936V876.731z"/>
	<path fill="#FFFFFF" d="M691.633,862.425l-5.609-15.522c-0.063-0.062-0.095-0.125-0.095-0.187c0-0.312,0.156-0.467,0.468-0.467
		c0.188,0,0.312,0.125,0.375,0.374l3.833,10.005c0.313,0.686,0.998,1.028,2.058,1.028c0.374,0,0.639-0.28,0.795-0.841
		c0.155-0.561,0.233-0.935,0.233-1.122l-3.927-9.631c-0.125-1.185-0.687-2.182-1.684-2.993c-0.998-0.81-2.151-1.215-3.46-1.215
		h-4.956c-1.309,0-2.478,0.421-3.506,1.262c-1.029,0.842-1.637,1.824-1.824,2.946l-3.646,9.725
		c-0.125,0.187-0.094,0.545,0.094,1.075c0.187,0.53,0.467,0.795,0.842,0.795c1.184,0,1.869-0.312,2.057-0.935l3.74-10.099
		c0.063-0.187,0.188-0.281,0.374-0.281c0.249,0,0.374,0.125,0.374,0.374v0.094l-5.517,15.616v1.216c0,0.125,0.155,0.343,0.468,0.654
		c0.312,0.312,0.53,0.468,0.654,0.468h3.554v12.063c0,0.499,0.202,0.935,0.607,1.309s0.857,0.561,1.355,0.561
		c0.499,0,0.936-0.187,1.31-0.561s0.561-0.811,0.561-1.309v-12.53c0-0.063,0.172-0.109,0.515-0.14s0.67-0.031,0.981,0
		s0.468,0.078,0.468,0.14v12.437c0,0.499,0.188,0.951,0.561,1.356c0.375,0.405,0.827,0.608,1.356,0.608
		c0.53,0,0.982-0.203,1.355-0.608c0.375-0.405,0.562-0.857,0.562-1.356v-11.969h3.646c0.188,0,0.405-0.156,0.655-0.468
		c0.249-0.312,0.373-0.53,0.373-0.654v-0.281v-0.374v-0.374V862.425z"/>
	<path fill="#FFFFFF" d="M654.137,836.196c0,1.091,0.39,2.026,1.169,2.805s1.714,1.169,2.805,1.169c1.092,0,2.026-0.39,2.806-1.169
		s1.169-1.73,1.169-2.852c0-1.06-0.39-1.979-1.169-2.758c-0.779-0.779-1.714-1.169-2.806-1.169c-1.091,0-2.025,0.39-2.805,1.169
		S654.137,835.105,654.137,836.196z"/>
	<path fill="#FFFFFF" d="M678.076,836.196c0,1.091,0.389,2.026,1.168,2.805s1.715,1.169,2.806,1.169s2.026-0.39,2.805-1.169
		c0.779-0.779,1.17-1.714,1.17-2.805s-0.391-2.026-1.17-2.805c-0.778-0.779-1.714-1.169-2.805-1.169s-2.026,0.39-2.806,1.169
		S678.076,835.105,678.076,836.196z"/>
</g>
<polygon fill="#FF7BAC" points="172.624,322.143 338.624,322.143 358.749,412.143 322.624,412.143 322.624,508.143 172.624,508.143 
	"/>
<path fill="#FBB03B" stroke="#E6E6E6" stroke-width="2" stroke-miterlimit="10" d="M859.624,1376.133
	c0,0,108.185-8.99,108.185,90.01h113.815c0,0,63-222.171-222-222.171V1376.133z"/>
<path fill="#FBB03B" d="M1008.624,1489.143h114c0,0,32.648,67-0.079,170h-113.921V1489.143z"/>
<path fill="#FBB03B" stroke="#E6E6E6" stroke-width="2" stroke-miterlimit="10" d="M844.624,1763.98
	c0,0,108.185,9.162,108.185-89.838h113.815c0,0,63,221.999-222,221.999V1763.98z"/>
<polygon fill="#FF7BAC" points="208.624,517.143 343.624,517.143 343.624,619.643 289.736,798.143 172.624,798.143 172.624,517.143 
	"/>
<rect x="172.624" y="1637.143" fill="#29ABE2" stroke="#E6E6E6" stroke-width="2" stroke-miterlimit="10" width="140" height="180"/>
<rect x="317.624" y="1637.143" fill="#29ABE2" stroke="#E6E6E6" stroke-width="2" stroke-miterlimit="10" width="140" height="180"/>
<rect x="465.624" y="1637.143" fill="#29ABE2" stroke="#E6E6E6" stroke-width="2" stroke-miterlimit="10" width="140" height="180"/>
<polyline fill="#FF7BAC" stroke="#E6E6E6" stroke-width="2" stroke-miterlimit="10" points="333.624,426.143 333.624,507.143 
	540.479,507.143 555.622,321.143 349.479,321.143 370.051,425.252 "/>
<rect x="171.624" y="1148.143" fill="#22B573" stroke="#E6E6E6" stroke-width="2" stroke-miterlimit="10" width="118" height="153"/>
<rect x="173.624" y="1011.143" fill="#22B573" stroke="#E6E6E6" stroke-width="2" stroke-miterlimit="10" width="244" height="130"/>
<rect x="298.624" y="1148.143" fill="#22B573" stroke="#E6E6E6" stroke-width="2" stroke-miterlimit="10" width="118" height="153"/>
<path fill="#22B573" stroke="#E6E6E6" stroke-width="2" stroke-miterlimit="10" d="M180.581,1306.143h236.042v120.361
	c0,0-1.623,25.354-31.74,25.354c-30.116,0-211.26,0.096-211.26,0.096v-145.811H180.581z"/>
<rect x="818.624" y="967.143" fill="#C69C6D" stroke="#E6E6E6" stroke-width="2" stroke-miterlimit="10" width="190" height="190"/>
<polygon fill="#C69C6D" stroke="#E6E6E6" stroke-width="2" stroke-miterlimit="10" points="1018.624,1157.143 1018.624,960.143 
	819.778,960.143 818.291,798.143 1127.778,798.143 1128.111,1157.143 "/>
<polygon fill="#D9E021" stroke="#E6E6E6" stroke-width="2" stroke-miterlimit="10" points="635.624,638.143 635.624,421.143 
	833.624,421.143 833.624,638.298 833.624,723.143 734.624,723.143 733.551,638.143 "/>
<rect x="317.624" y="1877.143" fill="#29ABE2" stroke="#E6E6E6" stroke-width="2" stroke-miterlimit="10" width="442" height="108"/>
<rect x="637.624" y="284.143" fill="#D9E021" stroke="#E6E6E6" stroke-width="2" stroke-miterlimit="10" width="196" height="130"/>
<rect x="839.624" y="284.143" fill="#D9E021" stroke="#E6E6E6" stroke-width="2" stroke-miterlimit="10" width="248" height="130"/>
<g>
	<path fill="#808080" d="M984.624,607.143c0,6.627-5.373,12-12,12h-47c-6.627,0-12-5.373-12-12v-48c0-6.627,5.373-12,12-12h47
		c6.627,0,12,5.373,12,12V607.143z"/>
	<path fill="#FFFFFF" d="M977.196,577.014c-0.583-0.583-1.312-0.875-2.186-0.875h-0.729l-9.183-16.617
		c-0.486-0.875-1.215-1.312-2.188-1.312h-27.84c-1.069,0-1.847,0.438-2.333,1.312l-9.037,16.617h-0.875
		c-0.874,0-1.603,0.292-2.186,0.875c-0.584,0.583-0.875,1.312-0.875,2.187v14.868c0,0.875,0.291,1.604,0.875,2.187
		c0.583,0.583,1.312,0.875,2.186,0.875h2.916v4.373c0,1.263,0.437,2.332,1.312,3.207c0.875,0.875,1.943,1.312,3.207,1.312h1.457
		c1.265,0,2.333-0.437,3.208-1.312c0.874-0.875,1.312-1.943,1.312-3.207v-4.373h25.362v4.373c0,1.263,0.438,2.332,1.312,3.207
		c0.875,0.875,1.943,1.312,3.208,1.312h1.458c1.263,0,2.331-0.437,3.206-1.312c0.874-0.875,1.312-1.943,1.312-3.207v-4.373h2.916
		c0.874,0,1.603-0.292,2.186-0.875c0.584-0.583,0.875-1.312,0.875-2.187V579.2C978.071,578.326,977.78,577.597,977.196,577.014z
		 M930.625,586.999c-0.729,0.729-1.604,1.093-2.624,1.093c-1.02,0-1.895-0.365-2.624-1.093c-0.729-0.729-1.093-1.604-1.093-2.624
		s0.364-1.895,1.093-2.624c0.729-0.729,1.604-1.093,2.624-1.093c1.021,0,1.896,0.364,2.624,1.093
		c0.729,0.729,1.093,1.603,1.093,2.624S931.354,586.27,930.625,586.999z M930.989,576.139l6.122-12.098
		c0.39-0.875,1.117-1.312,2.187-1.312h19.387c0.972,0,1.652,0.438,2.041,1.312l6.122,12.098H930.989z M972.459,586.999
		c-0.729,0.729-1.604,1.093-2.624,1.093c-1.021,0-1.896-0.365-2.624-1.093c-0.729-0.729-1.093-1.604-1.093-2.624
		s0.363-1.895,1.093-2.624c0.729-0.729,1.604-1.093,2.624-1.093c1.02,0,1.895,0.364,2.624,1.093
		c0.729,0.729,1.093,1.603,1.093,2.624S973.188,586.27,972.459,586.999z"/>
</g>
<g>
	<path fill="#808080" d="M496.624,934.143c0,6.627-5.373,12-12,12h-47c-6.627,0-12-5.373-12-12v-48c0-6.627,5.373-12,12-12h47
		c6.627,0,12,5.373,12,12V934.143z"/>
	<g>
		<polygon fill="#FFFFFF" points="454.46,905.021 454.709,905.021 454.709,905.342 466.076,905.342 466.076,916.707 
			466.289,916.707 466.289,917.01 477.653,917.01 477.653,928.375 480.653,928.375 480.653,914.01 469.076,914.01 469.076,902.342 
			457.46,902.342 457.46,890.654 443.094,890.654 443.094,893.654 454.46,893.654 		"/>
		<path fill="#FFFFFF" d="M440.124,935.766h41.982c2.48,0,4.5-2.02,4.5-4.5v-41.983c0-2.481-2.02-4.5-4.5-4.5h-41.982
			c-2.48,0-4.5,2.019-4.5,4.5v41.982C435.624,933.746,437.643,935.766,440.124,935.766z M438.624,889.283c0-0.827,0.673-1.5,1.5-1.5
			h41.982c0.826,0,1.5,0.673,1.5,1.5v41.982c0,0.827-0.674,1.5-1.5,1.5h-41.982c-0.827,0-1.5-0.673-1.5-1.5V889.283z"/>
	</g>
</g>
<g>
	<path fill="#808080" d="M331.624,1598.143c0,6.627-5.373,12-12,12h-47c-6.627,0-12-5.373-12-12v-48c0-6.627,5.373-12,12-12h47
		c6.627,0,12,5.373,12,12V1598.143z"/>
	<g>
		<path fill="#FFFFFF" d="M306.16,1559.711h-3.427h-13.151h-3.326l-2.104,17.685h24.113L306.16,1559.711z M298.762,1573.398
			c-0.468,0.29-1.012,0.489-1.615,0.592c-0.16,0.027-0.289,0.168-0.289,0.314v0.518c0,0.422-0.271,0.75-0.616,0.75
			s-0.616-0.328-0.616-0.75v-0.503c0-0.147-0.131-0.295-0.286-0.319c-0.789-0.131-1.385-0.332-1.821-0.619
			c-0.818-0.553-1.277-1.443-1.365-2.651c-0.014-0.196,0.054-0.385,0.188-0.53c0.14-0.15,0.339-0.236,0.546-0.236h1.038
			c0.396,0,0.747,0.303,0.814,0.703c0.069,0.418,0.146,0.609,0.196,0.697c0.105,0.182,0.285,0.319,0.545,0.42
			c0.117,0.021,0.144-0.066,0.144-0.139v-2.223c0-0.191-0.091-0.334-0.129-0.354l-0.304-0.09c-1.008-0.295-1.733-0.721-2.16-1.263
			c-0.43-0.546-0.646-1.21-0.646-1.974c0-0.5,0.084-0.959,0.249-1.369s0.4-0.771,0.701-1.072c0.384-0.385,0.819-0.653,1.295-0.801
			c0.187-0.062,0.421-0.109,0.714-0.147c0.154-0.021,0.28-0.156,0.28-0.304c0-0.426,0.271-0.754,0.616-0.754s0.615,0.328,0.615,0.75
			c0,0.166,0.129,0.307,0.287,0.332c0.621,0.103,1.137,0.301,1.533,0.589c0.775,0.493,1.243,1.267,1.379,2.291
			c0.025,0.196-0.033,0.388-0.164,0.536c-0.136,0.156-0.334,0.244-0.547,0.244h-0.984c-0.385,0-0.735-0.3-0.813-0.696
			c-0.035-0.179-0.081-0.319-0.132-0.417c-0.092-0.174-0.228-0.294-0.415-0.37c-0.085-0.006-0.145,0.065-0.145,0.164v1.876
			c0,0.171,0.145,0.373,0.308,0.434c0.966,0.354,1.621,0.67,2.001,0.963c0.738,0.577,1.111,1.396,1.111,2.434
			C300.278,1571.778,299.768,1572.779,298.762,1573.398z"/>
		<path fill="#FFFFFF" d="M295.485,1564.537c-0.01,0-0.021,0.002-0.032,0.006c-0.156,0.046-0.277,0.115-0.37,0.214
			c-0.167,0.177-0.249,0.421-0.249,0.745c0,0.344,0.124,0.606,0.379,0.807c0.081,0.063,0.195,0.127,0.337,0.188
			c0.07,0.011,0.074-0.07,0.074-0.113v-1.65C295.625,1564.63,295.559,1564.537,295.485,1564.537z"/>
		<path fill="#FFFFFF" d="M296.157,1553.136c-2.273,0-4.18,1.512-4.824,3.575h9.648
			C300.336,1554.647,298.43,1553.136,296.157,1553.136z"/>
		<path fill="#FFFFFF" d="M296.958,1569.586l-0.06-0.016c-0.041,0-0.043,0.096-0.043,0.1v1.951c0,0.104,0.054,0.177,0.104,0.177
			c0.167-0.044,0.278-0.093,0.359-0.15c0.242-0.18,0.367-0.516,0.367-0.998c0-0.36-0.117-0.634-0.354-0.838
			C297.252,1569.744,297.125,1569.668,296.958,1569.586z"/>
		<path fill="#FFFFFF" d="M274.001,1568.824c0,1.809,0.24,3.657,0.715,5.502c0.011,0.125,0.039,0.248,0.082,0.369
			c0.14,0.387,1.384,3.827,2.244,5.281c4.388,8.344,10.399,15.489,17.875,21.242c0.134,0.181,0.31,0.333,0.517,0.439
			c0.217,0.112,0.455,0.168,0.69,0.168c0.19,0,0.381-0.035,0.56-0.107c0.078-0.026,0.153-0.059,0.228-0.098
			c0.157-0.082,0.296-0.191,0.413-0.322c16.783-12.854,20.056-26.327,20.177-26.854c0.495-1.89,0.747-3.78,0.747-5.62
			c-0.003-12.199-9.927-22.121-22.125-22.121S274.001,1556.625,274.001,1568.824z M284.923,1556.711h3.304
			c0.705-3.738,3.989-6.575,7.931-6.575c3.94,0,7.225,2.837,7.931,6.575h3.403c0.76,0,1.399,0.567,1.489,1.322l2.461,20.685
			c0.052,0.426-0.082,0.854-0.367,1.174c-0.285,0.319-0.693,0.504-1.122,0.504h-27.491c-0.429,0-0.837-0.185-1.122-0.504
			c-0.284-0.32-0.418-0.748-0.368-1.174l2.463-20.685C283.524,1557.279,284.164,1556.711,284.923,1556.711z"/>
	</g>
</g>
<polyline fill="none" stroke="#000000" stroke-width="2" stroke-miterlimit="10" points="258.624,153.143 258.624,161.143 
	326.624,161.143 326.624,153.143 "/>
<g>
	<path d="M338.17,158.33c0.943,0.58,1.928,0.87,2.953,0.87c0.797,0,1.43-0.196,1.898-0.589s0.703-0.932,0.703-1.617
		c0-1.406-0.976-2.109-2.927-2.109c-0.586,0-1.33,0.053-2.232,0.158v-7.515h7.427v2.338h-4.983v2.865
		c0.34-0.041,0.718-0.062,1.134-0.062c1.365,0,2.452,0.363,3.261,1.09s1.213,1.723,1.213,2.988c0,1.418-0.473,2.544-1.419,3.379
		s-2.205,1.252-3.775,1.252c-1.313,0-2.396-0.196-3.252-0.589V158.33z"/>
	<path d="M361.76,161.143v-8.262c0-0.762,0.038-1.72,0.114-2.874h-0.07c-0.176,0.873-0.316,1.456-0.422,1.749l-3.357,9.387h-2.312
		l-3.401-9.299c-0.082-0.223-0.226-0.835-0.431-1.837h-0.079c0.076,1.143,0.114,2.288,0.114,3.437v7.699h-2.619v-13.614h4.219
		l2.936,8.227c0.246,0.68,0.413,1.318,0.501,1.916h0.062c0.182-0.744,0.369-1.389,0.563-1.934l2.944-8.209h4.104v13.614H361.76z"/>
</g>
<g>
	<path fill="#808080" d="M813.624,1698.143c0,6.627-5.373,12-12,12h-47c-6.627,0-12-5.373-12-12v-48c0-6.627,5.373-12,12-12h47
		c6.627,0,12,5.373,12,12V1698.143z"/>
	<path fill="#FFFFFF" d="M760.389,1693.731c0,1.31,0.639,1.964,1.917,1.964c1.277,0,1.917-0.654,1.917-1.964v-17.673h1.964v17.673
		c0,1.31,0.639,1.964,1.916,1.964c1.278,0,1.917-0.654,1.917-1.964v-30.109h0.936v10.847c0,0.686,0.233,1.185,0.701,1.496
		c0.468,0.313,0.951,0.313,1.449,0c0.499-0.312,0.748-0.811,0.748-1.496v-11.688c0-1.247-0.421-2.213-1.262-2.898
		c-0.842-0.687-2.011-1.028-3.507-1.028h-7.668c-1.434,0-2.603,0.311-3.507,0.935c-0.903,0.624-1.355,1.59-1.355,2.899v12.436
		c0,0.562,0.249,0.967,0.748,1.216s0.981,0.249,1.449,0s0.701-0.654,0.701-1.216v-11.501h0.936V1693.731z"/>
	<path fill="#FFFFFF" d="M798.633,1679.425l-5.609-15.522c-0.063-0.063-0.095-0.125-0.095-0.188c0-0.311,0.156-0.467,0.468-0.467
		c0.188,0,0.312,0.125,0.375,0.374l3.833,10.005c0.313,0.686,0.998,1.029,2.058,1.029c0.374,0,0.639-0.281,0.795-0.842
		c0.155-0.561,0.233-0.936,0.233-1.122l-3.927-9.632c-0.125-1.184-0.687-2.182-1.684-2.992c-0.998-0.811-2.151-1.215-3.46-1.215
		h-4.956c-1.309,0-2.478,0.42-3.506,1.262c-1.029,0.842-1.637,1.824-1.824,2.945l-3.646,9.725c-0.125,0.188-0.094,0.546,0.094,1.076
		c0.187,0.529,0.467,0.795,0.842,0.795c1.184,0,1.869-0.313,2.057-0.936l3.74-10.099c0.063-0.187,0.188-0.28,0.374-0.28
		c0.249,0,0.374,0.125,0.374,0.373v0.094l-5.517,15.616v1.216c0,0.125,0.155,0.343,0.468,0.654c0.312,0.312,0.53,0.468,0.654,0.468
		h3.554v12.063c0,0.499,0.202,0.935,0.607,1.31c0.405,0.373,0.857,0.561,1.355,0.561c0.499,0,0.936-0.188,1.31-0.561
		c0.374-0.375,0.561-0.811,0.561-1.31v-12.53c0-0.063,0.172-0.109,0.515-0.141s0.67-0.031,0.981,0s0.468,0.078,0.468,0.141v12.437
		c0,0.499,0.188,0.95,0.561,1.356c0.375,0.404,0.827,0.607,1.356,0.607c0.53,0,0.982-0.203,1.355-0.607
		c0.375-0.406,0.562-0.857,0.562-1.356v-11.969h3.646c0.188,0,0.405-0.156,0.655-0.468c0.249-0.312,0.373-0.529,0.373-0.654v-0.281
		v-0.373v-0.375V1679.425z"/>
	<path fill="#FFFFFF" d="M761.137,1653.195c0,1.092,0.39,2.026,1.169,2.806s1.714,1.169,2.805,1.169c1.092,0,2.026-0.39,2.806-1.169
		s1.169-1.729,1.169-2.853c0-1.06-0.39-1.979-1.169-2.758s-1.714-1.169-2.806-1.169c-1.091,0-2.025,0.39-2.805,1.169
		S761.137,1652.105,761.137,1653.195z"/>
	<path fill="#FFFFFF" d="M785.076,1653.195c0,1.092,0.389,2.026,1.168,2.806s1.715,1.169,2.806,1.169s2.026-0.39,2.805-1.169
		c0.779-0.779,1.17-1.714,1.17-2.806c0-1.09-0.391-2.025-1.17-2.805c-0.778-0.779-1.714-1.169-2.805-1.169s-2.026,0.39-2.806,1.169
		S785.076,1652.105,785.076,1653.195z"/>
</g>
<g>
	<path fill="#808080" d="M777.624,1330.143c0,6.627-5.373,12-12,12h-47c-6.627,0-12-5.373-12-12v-48c0-6.627,5.373-12,12-12h47
		c6.627,0,12,5.373,12,12V1330.143z"/>
	<g>
		<polygon fill="#FFFFFF" points="735.46,1301.021 735.709,1301.021 735.709,1301.342 747.076,1301.342 747.076,1312.707 
			747.289,1312.707 747.289,1313.01 758.653,1313.01 758.653,1324.375 761.653,1324.375 761.653,1310.01 750.076,1310.01 
			750.076,1298.342 738.46,1298.342 738.46,1286.654 724.094,1286.654 724.094,1289.654 735.46,1289.654 		"/>
		<path fill="#FFFFFF" d="M721.124,1331.766h41.982c2.48,0,4.5-2.02,4.5-4.5v-41.982c0-2.481-2.02-4.5-4.5-4.5h-41.982
			c-2.48,0-4.5,2.019-4.5,4.5v41.981C716.624,1329.746,718.643,1331.766,721.124,1331.766z M719.624,1285.283
			c0-0.828,0.673-1.5,1.5-1.5h41.982c0.826,0,1.5,0.672,1.5,1.5v41.981c0,0.827-0.674,1.5-1.5,1.5h-41.982
			c-0.827,0-1.5-0.673-1.5-1.5V1285.283z"/>
	</g>
</g>
<g>
	<path fill="#808080" d="M437.624,206.613c0,3.054-2.476,5.53-5.53,5.53h-21.94c-3.054,0-5.53-2.476-5.53-5.53v-21.94
		c0-3.054,2.476-5.53,5.53-5.53h21.94c3.054,0,5.53,2.476,5.53,5.53V206.613z"/>
	<path fill="#FFFFFF" d="M433.917,192.907c-0.269-0.269-0.604-0.403-1.007-0.403h-0.336l-4.231-7.657
		c-0.224-0.403-0.56-0.604-1.008-0.604h-12.829c-0.493,0-0.851,0.202-1.075,0.604l-4.164,7.657h-0.403
		c-0.403,0-0.738,0.134-1.007,0.403c-0.269,0.269-0.403,0.604-0.403,1.007v6.852c0,0.403,0.134,0.739,0.403,1.007
		c0.269,0.269,0.604,0.403,1.007,0.403h1.344v2.015c0,0.582,0.201,1.075,0.604,1.478c0.403,0.403,0.896,0.604,1.478,0.604h0.671
		c0.583,0,1.075-0.201,1.479-0.604c0.403-0.403,0.604-0.896,0.604-1.478v-2.015h11.687v2.015c0,0.582,0.202,1.075,0.604,1.478
		c0.403,0.403,0.896,0.604,1.478,0.604h0.672c0.582,0,1.074-0.201,1.478-0.604c0.403-0.403,0.604-0.896,0.604-1.478v-2.015h1.344
		c0.402,0,0.738-0.134,1.007-0.403c0.269-0.269,0.403-0.604,0.403-1.007v-6.852C434.321,193.512,434.187,193.176,433.917,192.907z
		 M412.458,197.508c-0.335,0.336-0.739,0.504-1.209,0.504c-0.47,0-0.873-0.168-1.209-0.504c-0.335-0.336-0.503-0.739-0.503-1.209
		s0.168-0.874,0.503-1.209c0.336-0.336,0.74-0.504,1.209-0.504c0.47,0,0.874,0.168,1.209,0.504c0.336,0.335,0.503,0.739,0.503,1.209
		S412.793,197.172,412.458,197.508z M412.625,192.504l2.821-5.575c0.18-0.403,0.515-0.604,1.008-0.604h8.933
		c0.448,0,0.762,0.202,0.94,0.604l2.821,5.575H412.625z M431.735,197.508c-0.336,0.336-0.739,0.504-1.209,0.504
		c-0.47,0-0.874-0.168-1.209-0.504c-0.336-0.336-0.504-0.739-0.504-1.209s0.167-0.874,0.504-1.209
		c0.335-0.336,0.739-0.504,1.209-0.504c0.47,0,0.873,0.168,1.209,0.504c0.336,0.335,0.504,0.739,0.504,1.209
		S432.071,197.172,431.735,197.508z"/>
</g>
<g>
	<path fill="#808080" d="M437.624,163.643c0,3.038-2.462,5.5-5.5,5.5h-22c-3.038,0-5.5-2.462-5.5-5.5v-22c0-3.038,2.462-5.5,5.5-5.5
		h22c3.038,0,5.5,2.462,5.5,5.5V163.643z"/>
	<path fill="#FFFFFF" d="M412.766,161.621c0,0.6,0.293,0.9,0.878,0.9s0.879-0.3,0.879-0.9v-8.1h0.9v8.1c0,0.6,0.293,0.9,0.878,0.9
		c0.586,0,0.878-0.3,0.878-0.9v-13.8h0.429v4.971c0,0.314,0.107,0.543,0.321,0.686c0.215,0.143,0.436,0.143,0.665,0
		c0.229-0.143,0.343-0.371,0.343-0.686v-5.357c0-0.572-0.193-1.015-0.578-1.329c-0.386-0.314-0.922-0.472-1.607-0.472h-3.515
		c-0.657,0-1.193,0.143-1.607,0.429s-0.622,0.729-0.622,1.329v5.7c0,0.257,0.114,0.443,0.343,0.557c0.229,0.114,0.45,0.114,0.665,0
		s0.321-0.3,0.321-0.557v-5.271h0.429V161.621z"/>
	<path fill="#FFFFFF" d="M430.294,155.063l-2.571-7.114c-0.029-0.028-0.043-0.057-0.043-0.086c0-0.143,0.072-0.214,0.214-0.214
		c0.086,0,0.143,0.057,0.172,0.171l1.757,4.585c0.144,0.314,0.458,0.472,0.943,0.472c0.171,0,0.292-0.128,0.364-0.386
		c0.071-0.257,0.107-0.429,0.107-0.514l-1.8-4.415c-0.057-0.543-0.314-1-0.771-1.372c-0.458-0.371-0.986-0.557-1.586-0.557h-2.271
		c-0.6,0-1.136,0.193-1.607,0.579c-0.472,0.386-0.75,0.836-0.836,1.35l-1.671,4.457c-0.058,0.086-0.043,0.25,0.043,0.493
		c0.085,0.243,0.214,0.364,0.386,0.364c0.542,0,0.856-0.143,0.942-0.429l1.714-4.628c0.029-0.086,0.086-0.129,0.171-0.129
		c0.114,0,0.172,0.058,0.172,0.171v0.043l-2.529,7.157v0.558c0,0.057,0.071,0.157,0.214,0.3c0.143,0.143,0.243,0.214,0.3,0.214
		h1.629v5.528c0,0.229,0.093,0.429,0.278,0.6c0.186,0.171,0.393,0.257,0.622,0.257s0.429-0.086,0.6-0.257s0.257-0.372,0.257-0.6
		v-5.743c0-0.029,0.079-0.05,0.236-0.064c0.157-0.014,0.307-0.014,0.45,0c0.143,0.014,0.215,0.036,0.215,0.064v5.7
		c0,0.229,0.086,0.436,0.257,0.622c0.172,0.186,0.379,0.279,0.622,0.279c0.243,0,0.45-0.093,0.621-0.279
		c0.172-0.186,0.257-0.393,0.257-0.622v-5.485h1.671c0.086,0,0.186-0.072,0.3-0.214c0.114-0.143,0.171-0.243,0.171-0.3v-0.129
		v-0.171v-0.171V155.063z"/>
	<path fill="#FFFFFF" d="M413.109,143.042c0,0.5,0.179,0.929,0.536,1.286c0.357,0.357,0.786,0.536,1.286,0.536
		c0.5,0,0.929-0.178,1.286-0.536c0.357-0.357,0.536-0.793,0.536-1.307c0-0.486-0.179-0.907-0.536-1.264
		c-0.357-0.357-0.786-0.536-1.286-0.536c-0.5,0-0.928,0.178-1.286,0.536C413.288,142.113,413.109,142.542,413.109,143.042z"/>
	<path fill="#FFFFFF" d="M424.081,143.042c0,0.5,0.178,0.929,0.536,1.286c0.357,0.357,0.786,0.536,1.286,0.536
		s0.929-0.178,1.286-0.536c0.357-0.357,0.536-0.786,0.536-1.286s-0.179-0.929-0.536-1.286c-0.357-0.357-0.786-0.536-1.286-0.536
		s-0.929,0.178-1.286,0.536C424.259,142.113,424.081,142.542,424.081,143.042z"/>
</g>
<g>
	<path fill="#808080" d="M605.624,205.575c0,3.075-2.493,5.568-5.568,5.568h-21.863c-3.075,0-5.568-2.493-5.568-5.568V183.71
		c0-3.075,2.493-5.568,5.568-5.568h21.863c3.075,0,5.568,2.493,5.568,5.568V205.575z"/>
	<g>
		<polygon fill="#FFFFFF" points="586.503,191.969 586.619,191.969 586.619,192.119 591.893,192.119 591.893,197.392 
			591.991,197.392 591.991,197.532 597.264,197.532 597.264,202.805 598.656,202.805 598.656,196.14 593.284,196.14 
			593.284,190.727 587.896,190.727 587.896,185.303 581.229,185.303 581.229,186.696 586.503,186.696 		"/>
		<path fill="#FFFFFF" d="M579.852,206.234h19.479c1.151,0,2.088-0.937,2.088-2.087v-19.479c0-1.152-0.938-2.088-2.088-2.088
			h-19.479c-1.151,0-2.088,0.936-2.088,2.088v19.479C577.763,205.297,578.701,206.234,579.852,206.234z M579.155,184.667
			c0-0.384,0.313-0.696,0.696-0.696h19.479c0.383,0,0.696,0.312,0.696,0.696v19.479c0,0.384-0.313,0.696-0.696,0.696h-19.479
			c-0.384,0-0.696-0.312-0.696-0.696V184.667z"/>
	</g>
</g>
<g>
	<path fill="#808080" d="M606.624,164.643c0,3.038-2.497,5.5-5.578,5.5h-21.845c-3.081,0-5.578-2.462-5.578-5.5v-22
		c0-3.038,2.497-5.5,5.578-5.5h21.845c3.081,0,5.578,2.462,5.578,5.5V164.643z"/>
	<g>
		<path fill="#FFFFFF" d="M594.788,146.528h-1.593h-6.112h-1.546l-0.979,8.105h11.208L594.788,146.528z M591.35,152.802
			c-0.218,0.133-0.47,0.224-0.751,0.271c-0.074,0.013-0.134,0.077-0.134,0.144v0.237c0,0.193-0.126,0.344-0.287,0.344
			c-0.16,0-0.286-0.15-0.286-0.344v-0.23c0-0.067-0.061-0.135-0.133-0.146c-0.367-0.06-0.644-0.152-0.847-0.284
			c-0.38-0.253-0.594-0.662-0.635-1.215c-0.006-0.09,0.025-0.176,0.088-0.243c0.065-0.069,0.157-0.108,0.253-0.108h0.483
			c0.184,0,0.347,0.139,0.378,0.322c0.032,0.191,0.067,0.279,0.091,0.319c0.049,0.083,0.132,0.146,0.253,0.192
			c0.055,0.01,0.067-0.03,0.067-0.063v-1.019c0-0.088-0.042-0.153-0.06-0.162l-0.141-0.041c-0.468-0.135-0.806-0.331-1.004-0.579
			c-0.2-0.25-0.3-0.554-0.3-0.904c0-0.229,0.039-0.439,0.116-0.627s0.186-0.354,0.326-0.492c0.178-0.176,0.381-0.299,0.602-0.367
			c0.086-0.028,0.195-0.05,0.332-0.068c0.072-0.009,0.13-0.072,0.13-0.139c0-0.195,0.125-0.346,0.287-0.346
			c0.161,0,0.286,0.15,0.286,0.344c0,0.076,0.06,0.141,0.133,0.152c0.289,0.047,0.528,0.138,0.713,0.27
			c0.36,0.226,0.578,0.581,0.641,1.05c0.012,0.09-0.015,0.178-0.076,0.246c-0.063,0.072-0.155,0.112-0.254,0.112h-0.458
			c-0.179,0-0.342-0.138-0.378-0.319c-0.016-0.082-0.038-0.146-0.061-0.191c-0.043-0.08-0.106-0.135-0.193-0.17
			c-0.04-0.002-0.067,0.03-0.067,0.075v0.86c0,0.079,0.067,0.171,0.143,0.199c0.449,0.163,0.753,0.307,0.93,0.441
			c0.343,0.265,0.517,0.64,0.517,1.115C592.054,152.059,591.817,152.518,591.35,152.802z"/>
		<path fill="#FFFFFF" d="M589.827,148.74c-0.004,0-0.009,0.001-0.015,0.002c-0.072,0.021-0.129,0.053-0.172,0.098
			c-0.078,0.081-0.116,0.193-0.116,0.341c0,0.158,0.058,0.278,0.176,0.37c0.038,0.029,0.091,0.059,0.156,0.086
			c0.033,0.005,0.035-0.032,0.035-0.052v-0.756C589.892,148.783,589.861,148.74,589.827,148.74z"/>
		<path fill="#FFFFFF" d="M590.139,143.515c-1.057,0-1.943,0.693-2.242,1.639h4.484
			C592.082,144.208,591.196,143.515,590.139,143.515z"/>
		<path fill="#FFFFFF" d="M590.512,151.054l-0.028-0.007c-0.019,0-0.02,0.044-0.02,0.046v0.894c0,0.048,0.025,0.081,0.048,0.081
			c0.078-0.02,0.129-0.042,0.167-0.069c0.112-0.083,0.17-0.236,0.17-0.458c0-0.165-0.054-0.291-0.164-0.384
			C590.648,151.126,590.589,151.092,590.512,151.054z"/>
		<path fill="#FFFFFF" d="M579.841,150.705c0,0.829,0.112,1.676,0.333,2.521c0.005,0.058,0.018,0.114,0.038,0.169
			c0.065,0.177,0.643,1.754,1.043,2.42c2.04,3.824,4.833,7.099,8.308,9.736c0.062,0.083,0.144,0.152,0.24,0.201
			c0.101,0.051,0.211,0.077,0.321,0.077c0.088,0,0.177-0.016,0.26-0.049c0.036-0.012,0.071-0.027,0.105-0.045
			c0.073-0.038,0.138-0.087,0.192-0.147c7.801-5.892,9.322-12.067,9.378-12.309c0.23-0.866,0.347-1.732,0.347-2.576
			c-0.001-5.591-4.614-10.139-10.283-10.139S579.841,145.114,579.841,150.705z M584.918,145.153h1.535
			c0.328-1.714,1.854-3.014,3.687-3.014c1.831,0,3.358,1.3,3.686,3.014h1.582c0.353,0,0.65,0.26,0.692,0.606l1.144,9.48
			c0.024,0.195-0.038,0.391-0.17,0.538c-0.133,0.146-0.322,0.231-0.521,0.231h-12.778c-0.199,0-0.389-0.084-0.521-0.231
			c-0.132-0.146-0.194-0.343-0.171-0.538l1.145-9.48C584.268,145.414,584.565,145.153,584.918,145.153z"/>
	</g>
</g>
<g>
	<path d="M450.045,161.545h5.52v-10.6h-4.922v-2.391h15.609c-0.076,3.574-0.152,5.786-0.229,6.636s-0.226,1.509-0.448,1.978
		s-0.623,0.857-1.2,1.165s-2.19,0.417-4.838,0.33c-0.129-0.75-0.322-1.646-0.58-2.689c1.184,0.117,2.162,0.176,2.936,0.176
		c0.68,0,1.116-0.24,1.31-0.721s0.302-1.975,0.325-4.482h-5.291v10.6h8.965v2.391h-17.156V161.545z"/>
	<path d="M468.608,161.704h7.4v-2.988h-5.203v-2.373h5.203v-2.918h-4.254c-0.768,1.512-1.629,2.924-2.584,4.236
		c-0.363-0.973-0.762-1.98-1.195-3.023c1.207-1.605,2.232-3.744,3.076-6.416l2.619,0.65c-0.258,0.744-0.533,1.471-0.826,2.18h3.164
		v-3.48h2.637v3.48h5.836v2.373h-5.836v2.918h5.15v2.373h-5.15v2.988h6.469v2.443h-16.506V161.704z"/>
	<path d="M486.59,149.803h2.443v14.977h-2.443V149.803z M488.682,148.292l2.303-0.809c0.551,0.867,1.113,1.816,1.688,2.848
		l-2.443,0.932C489.702,150.149,489.186,149.159,488.682,148.292z M490.651,151.913h7.857v9.246h-5.643v0.967h-2.215V151.913z
		 M496.293,153.881h-3.428v1.67h3.428V153.881z M496.293,159.19v-1.67h-3.428v1.67H496.293z M502.657,161.545
		c0,0.85-0.142,1.529-0.426,2.039s-0.737,0.845-1.358,1.006s-2.001,0.242-4.14,0.242c-0.141-0.867-0.328-1.688-0.563-2.461
		c0.75,0.047,1.705,0.07,2.865,0.07c0.785,0,1.178-0.346,1.178-1.037v-10.916h-6.943v-2.162h9.387V161.545z"/>
</g>
<g>
	<path d="M452.875,187.873l2.18,0.475c-0.375,1.313-0.785,2.572-1.23,3.779v13.008h-2.18v-8.174c-0.363,0.68-0.744,1.33-1.143,1.951
		c-0.152-0.938-0.375-1.992-0.668-3.164C450.983,193.814,451.997,191.189,452.875,187.873z M454.352,199.298v-2.76h12.99v2.76
		h-2.285v-1.002h-8.42v1.002H454.352z M467.237,191.107h-12.34v-1.758h4.764c-0.141-0.328-0.293-0.686-0.457-1.072l2.584-0.439
		c0.188,0.492,0.375,0.996,0.563,1.512h4.887V191.107z M466.288,199.58v1.793h-3.727v1.318c0,1.465-0.615,2.232-1.846,2.303
		c-0.715,0.07-1.723,0.094-3.023,0.07c-0.082-0.539-0.223-1.26-0.422-2.162c0.609,0.059,1.318,0.088,2.127,0.088
		c0.574,0.035,0.861-0.281,0.861-0.949v-0.668h-4.693v-1.793H466.288z M455.987,191.828h9.861v4.008h-9.861V191.828z
		 M463.563,194.289v-0.914h-5.291v0.914H463.563z"/>
	<path d="M468.116,199.703h7.875v-1.846h-6.24v-2.021c0.744-1.283,1.421-2.549,2.03-3.797h-3.173v-2.18h4.175
		c0.311-0.715,0.601-1.424,0.87-2.127l2.602,0.387l-0.791,1.74h8.965v2.18h-10.02c-0.592,1.172-1.23,2.385-1.916,3.639h3.498V192.9
		h2.461v2.777h5.027v2.18h-5.027v1.846h6.68v2.18h-6.68v3.34h-2.461v-3.34h-7.875V199.703z"/>
	<path d="M496.504,194.218h6.311c0,2.438-0.07,4.945-0.211,7.523c-0.082,1.945-0.967,2.977-2.654,3.094
		c-0.633,0.047-1.383,0.082-2.25,0.105c-0.082-0.691-0.229-1.506-0.439-2.443c-0.668,0.961-1.453,1.828-2.355,2.602
		c-0.668-0.516-1.377-1.02-2.127-1.512c2.555-1.945,4.131-4.365,4.729-7.26h-1.424c-0.645,2.367-1.74,4.26-3.287,5.678
		c-0.281-0.246-0.557-0.48-0.826-0.703c-0.012,0.398-0.012,0.832,0,1.301c-2.074,0.422-3.961,0.832-5.66,1.23l-0.457-2.514
		c0.68-0.117,1.365-0.24,2.057-0.369v-6.205h-1.881v-2.408h1.881v-4.447h2.338v4.447h1.67v2.408h-1.67v5.748
		c0.281-0.059,0.557-0.117,0.826-0.176c1.301-1.031,2.227-2.361,2.777-3.99h-1.564v-2.092l5.238-3.393h-5.256v-2.109h9.387v2.021
		L496.504,194.218z M498.825,202.48c0.973,0,1.488-0.416,1.547-1.248c0.105-1.207,0.182-2.842,0.229-4.904h-0.914
		c-0.434,2.355-1.225,4.389-2.373,6.1C497.864,202.462,498.368,202.48,498.825,202.48z"/>
</g>
<g>
	<path d="M627.075,155.481c0.768,1.33,1.62,2.449,2.558,3.357c1.008-0.955,1.825-2.086,2.452-3.393l2.074,1.389
		c-0.738,1.336-1.585,2.511-2.54,3.524c1.705,0.973,3.946,1.62,6.724,1.942c-0.586,0.984-1.072,1.822-1.459,2.514
		c-2.795-0.381-5.209-1.286-7.242-2.716c-2.021,1.4-4.471,2.329-7.348,2.786c-0.293-0.656-0.768-1.494-1.424-2.514
		c2.695-0.34,4.951-1.02,6.768-2.039c-0.967-1.014-1.811-2.145-2.531-3.393L627.075,155.481z M621.081,149.698h7.093
		c-0.234-0.557-0.442-1.037-0.624-1.441l2.602-0.791c0.281,0.557,0.645,1.301,1.09,2.232h6.803v2.215h-16.963V149.698z
		 M621.186,155.991c1.945-1.301,3.639-2.648,5.08-4.043l1.898,1.74c-1.676,1.523-3.451,2.971-5.326,4.342
		C622.452,157.479,621.901,156.799,621.186,155.991z M632.805,152c1.934,1.371,3.674,2.654,5.221,3.85l-1.828,2.021
		c-1.617-1.477-3.287-2.865-5.01-4.166L632.805,152z"/>
	<path d="M640.891,148.116h13.641v7.629h-9.097c-0.217,0.322-0.445,0.633-0.686,0.932h10.837l-0.308,4.86
		c-0.07,0.979-0.289,1.715-0.655,2.21s-0.746,0.788-1.138,0.879s-1.497,0.136-3.313,0.136c-0.158-0.738-0.369-1.523-0.633-2.355
		c-0.879,0.99-1.916,1.846-3.111,2.566c-0.574-0.445-1.277-0.932-2.109-1.459c2.449-1.33,4.096-2.947,4.939-4.852h-1.731
		c-1.348,2.396-3.677,4.307-6.987,5.73c-0.422-0.504-0.996-1.096-1.723-1.775c2.807-1.084,4.749-2.402,5.827-3.955h-1.749
		c-0.703,0.639-1.465,1.225-2.285,1.758c-0.398-0.422-0.973-0.973-1.723-1.652c1.494-0.756,2.763-1.764,3.806-3.023h-1.802V148.116z
		 M652.088,150.067h-8.754v1.037h8.754V150.067z M652.088,153.793v-1.037h-8.754v1.037H652.088z M649.636,162.301
		c0.621,0.076,1.216,0.114,1.784,0.114c0.404,0,0.68-0.037,0.826-0.11s0.271-0.199,0.374-0.378s0.189-0.618,0.259-1.318
		s0.117-1.349,0.141-1.947h-1.169C651.289,160.028,650.55,161.241,649.636,162.301z"/>
	<path d="M660.456,161.774h13.658v2.373h-16.154v-15.609h15.609v2.373h-13.113V161.774z M661.124,152.897l1.688-1.723l3.894,3.384
		c1.002-1.119,1.937-2.3,2.804-3.542l2.18,1.441c-0.979,1.324-2.013,2.581-3.103,3.771l3.946,3.647l-2.074,1.828
		c-1.201-1.23-2.42-2.44-3.656-3.63c-1.324,1.295-2.719,2.499-4.184,3.612c-0.293-0.363-0.879-0.99-1.758-1.881
		c1.465-1.061,2.836-2.212,4.113-3.454C663.708,155.179,662.424,154.028,661.124,152.897z"/>
</g>
<g>
	<path d="M627.426,191.582h2.004c-0.627-0.75-1.254-1.418-1.881-2.004l1.371-1.23c0.645,0.551,1.348,1.207,2.109,1.969l-1.397,1.266
		h1.819v-3.744h2.215v3.744h1.688l-1.283-1.125c0.773-0.715,1.471-1.43,2.092-2.145l1.512,1.213
		c-0.674,0.744-1.345,1.43-2.013,2.057h2.312v1.934h-3.419c1.137,0.943,2.435,1.6,3.894,1.969c-0.434,0.551-0.867,1.195-1.301,1.934
		c-1.307-0.645-2.467-1.547-3.48-2.707v2.109h-1.925l1.222,0.369c-0.123,0.182-0.249,0.363-0.378,0.545h5.634v1.934h-1.863
		c-0.428,0.885-0.92,1.652-1.477,2.303l3.428,1.283l-1.213,1.951c-1.389-0.639-2.71-1.222-3.964-1.749
		c-1.436,0.879-3.401,1.479-5.897,1.802c-0.352-0.75-0.732-1.447-1.143-2.092c1.729-0.111,3.182-0.375,4.359-0.791
		c-1.09-0.422-2.115-0.791-3.076-1.107c0.416-0.486,0.829-1.02,1.239-1.6h-1.872v-1.934h3.12c0.246-0.404,0.489-0.826,0.729-1.266
		l0.861,0.264v-2.197c-1.078,1.195-2.25,2.18-3.516,2.953c-0.264-0.393-0.536-0.771-0.817-1.134l-0.993,1.31
		c-0.299-0.293-0.598-0.574-0.896-0.844v8.314h-2.18v-7.436c-0.457,1.248-1.008,2.426-1.652,3.533
		c-0.188-1.16-0.375-2.232-0.563-3.217c0.85-1.418,1.521-2.953,2.013-4.605h-1.837v-2.074h2.039v-3.445h2.18v3.445h1.67v2.074h-1.67
		v0.976c0.527,0.352,1.075,0.735,1.644,1.151c1.189-0.51,2.3-1.184,3.331-2.021h-2.777V191.582z M630.467,200.406l2.162,0.756
		c0.486-0.428,0.891-0.926,1.213-1.494H631.1C630.895,199.914,630.684,200.16,630.467,200.406z"/>
	<path d="M652.37,187.714l2.092,1.002c-0.334,0.457-0.68,0.902-1.037,1.336h2.004v5.432h-3.938v1.652h4.518
		c-0.035,2.432-0.088,3.908-0.158,4.43s-0.212,0.901-0.426,1.138s-0.495,0.391-0.844,0.461s-1.214,0.105-2.597,0.105
		c-0.117-0.727-0.246-1.406-0.387-2.039c0.527,0.035,1.031,0.053,1.512,0.053c0.287,0,0.475-0.1,0.563-0.299s0.141-0.82,0.158-1.863
		h-2.338v6.012h-2.285v-4.685c-1.195,1.529-2.59,2.786-4.184,3.771c-0.527-0.691-1.066-1.313-1.617-1.863
		c1.928-0.949,3.431-2.027,4.509-3.234h-2.804l0.202-2.505l-1.187,1.45c-0.305-0.369-0.609-0.724-0.914-1.063v8.165h-2.109v-7.365
		c-0.457,1.154-1.025,2.297-1.705,3.428c-0.176-1.137-0.363-2.209-0.563-3.217c0.926-1.559,1.614-3.141,2.065-4.746h-1.942v-2.285
		h2.145v-3.094h2.109v3.094h1.846v2.285h-1.846v1.107l2.136,1.749l0.22-2.628h3.639v-1.459h-3.832v-1.986h1.775
		c-0.311-0.463-0.609-0.867-0.896-1.213l1.793-1.107c0.586,0.598,1.148,1.277,1.688,2.039l-0.466,0.281h1.556
		C651.379,189.261,651.895,188.482,652.37,187.714z M647.43,197.136h1.775v-1.652h-1.67L647.43,197.136z M653.249,193.498v-1.459
		h-1.758v1.459H653.249z"/>
</g>
<g>
	<path fill="#FFFFFF" d="M252.848,461.571v19.494c0,1.465,0.064,2.399,0.193,2.804s0.398,0.735,0.809,0.993s1.066,0.387,1.969,0.387
		h0.545v0.65h-12.551v-0.65h0.633c1.02,0,1.746-0.117,2.18-0.352s0.727-0.557,0.879-0.967s0.229-1.365,0.229-2.865v-12.357
		c0-1.102-0.053-1.79-0.158-2.065s-0.302-0.51-0.589-0.703s-0.618-0.29-0.993-0.29c-0.598,0-1.324,0.188-2.18,0.563l-0.316-0.633
		l8.771-4.008H252.848z"/>
	<path fill="#FFFFFF" d="M275.805,473.981c0,2.379-0.334,4.6-1.002,6.662c-0.398,1.266-0.935,2.303-1.608,3.111
		s-1.438,1.45-2.294,1.925s-1.787,0.712-2.795,0.712c-1.148,0-2.186-0.293-3.111-0.879s-1.746-1.424-2.461-2.514
		c-0.516-0.797-0.967-1.857-1.354-3.182c-0.504-1.793-0.756-3.645-0.756-5.555c0-2.59,0.363-4.969,1.09-7.137
		c0.598-1.793,1.506-3.167,2.725-4.122s2.508-1.433,3.867-1.433c1.383,0,2.675,0.472,3.876,1.415s2.083,2.212,2.646,3.806
		C275.413,468.983,275.805,471.38,275.805,473.981z M270.391,473.946c0-4.172-0.023-6.604-0.07-7.295
		c-0.117-1.629-0.398-2.73-0.844-3.305c-0.293-0.375-0.768-0.563-1.424-0.563c-0.504,0-0.902,0.141-1.195,0.422
		c-0.434,0.41-0.727,1.134-0.879,2.171s-0.229,4.655-0.229,10.854c0,3.375,0.117,5.637,0.352,6.785
		c0.176,0.832,0.428,1.389,0.756,1.67s0.762,0.422,1.301,0.422c0.586,0,1.025-0.188,1.318-0.563c0.492-0.656,0.773-1.67,0.844-3.041
		L270.391,473.946z"/>
	<path fill="#FFFFFF" d="M288.848,461.571v19.494c0,1.465,0.064,2.399,0.193,2.804s0.398,0.735,0.809,0.993s1.066,0.387,1.969,0.387
		h0.545v0.65h-12.551v-0.65h0.633c1.02,0,1.746-0.117,2.18-0.352s0.727-0.557,0.879-0.967s0.229-1.365,0.229-2.865v-12.357
		c0-1.102-0.053-1.79-0.158-2.065s-0.302-0.51-0.589-0.703s-0.618-0.29-0.993-0.29c-0.598,0-1.324,0.188-2.18,0.563l-0.316-0.633
		l8.771-4.008H288.848z"/>
</g>
<g>
	<path fill="#FFFFFF" d="M480.662,461.571v19.494c0,1.465,0.064,2.399,0.193,2.804s0.398,0.735,0.809,0.993s1.066,0.387,1.969,0.387
		h0.545v0.65h-12.551v-0.65h0.633c1.02,0,1.746-0.117,2.18-0.352s0.727-0.557,0.879-0.967s0.229-1.365,0.229-2.865v-12.357
		c0-1.102-0.053-1.79-0.158-2.065s-0.302-0.51-0.589-0.703s-0.618-0.29-0.993-0.29c-0.598,0-1.324,0.188-2.18,0.563l-0.316-0.633
		l8.771-4.008H480.662z"/>
	<path fill="#FFFFFF" d="M503.619,473.981c0,2.379-0.334,4.6-1.002,6.662c-0.398,1.266-0.935,2.303-1.608,3.111
		s-1.438,1.45-2.294,1.925s-1.787,0.712-2.795,0.712c-1.148,0-2.186-0.293-3.111-0.879s-1.746-1.424-2.461-2.514
		c-0.516-0.797-0.967-1.857-1.354-3.182c-0.504-1.793-0.756-3.645-0.756-5.555c0-2.59,0.363-4.969,1.09-7.137
		c0.598-1.793,1.506-3.167,2.725-4.122s2.508-1.433,3.867-1.433c1.383,0,2.675,0.472,3.876,1.415s2.083,2.212,2.646,3.806
		C503.227,468.983,503.619,471.38,503.619,473.981z M498.205,473.946c0-4.172-0.023-6.604-0.07-7.295
		c-0.117-1.629-0.398-2.73-0.844-3.305c-0.293-0.375-0.768-0.563-1.424-0.563c-0.504,0-0.902,0.141-1.195,0.422
		c-0.434,0.41-0.727,1.134-0.879,2.171s-0.229,4.655-0.229,10.854c0,3.375,0.117,5.637,0.352,6.785
		c0.176,0.832,0.428,1.389,0.756,1.67s0.762,0.422,1.301,0.422c0.586,0,1.025-0.188,1.318-0.563c0.492-0.656,0.773-1.67,0.844-3.041
		L498.205,473.946z"/>
	<path fill="#FFFFFF" d="M519.844,485.899h-14.027v-0.387c4.301-5.121,6.911-8.566,7.831-10.336s1.38-3.498,1.38-5.186
		c0-1.23-0.381-2.253-1.143-3.067s-1.693-1.222-2.795-1.222c-1.805,0-3.205,0.902-4.201,2.707l-0.65-0.229
		c0.633-2.25,1.594-3.914,2.883-4.992s2.777-1.617,4.465-1.617c1.207,0,2.309,0.281,3.305,0.844s1.775,1.333,2.338,2.312
		s0.844,1.896,0.844,2.751c0,1.559-0.434,3.141-1.301,4.746c-1.184,2.168-3.768,5.191-7.752,9.07h5.15
		c1.266,0,2.089-0.053,2.47-0.158s0.694-0.284,0.94-0.536s0.568-0.782,0.967-1.591h0.633L519.844,485.899z"/>
</g>
<g>
	<path fill="#FFFFFF" d="M215.662,746.571v19.494c0,1.465,0.064,2.399,0.193,2.804s0.398,0.735,0.809,0.993s1.066,0.387,1.969,0.387
		h0.545v0.65h-12.551v-0.65h0.633c1.02,0,1.746-0.117,2.18-0.352s0.727-0.557,0.879-0.967s0.229-1.365,0.229-2.865v-12.357
		c0-1.102-0.053-1.79-0.158-2.065s-0.302-0.51-0.589-0.703s-0.618-0.29-0.993-0.29c-0.598,0-1.324,0.188-2.18,0.563l-0.316-0.633
		l8.771-4.008H215.662z"/>
	<path fill="#FFFFFF" d="M238.619,758.981c0,2.379-0.334,4.6-1.002,6.662c-0.398,1.266-0.935,2.303-1.608,3.111
		s-1.438,1.45-2.294,1.925s-1.787,0.712-2.795,0.712c-1.148,0-2.186-0.293-3.111-0.879s-1.746-1.424-2.461-2.514
		c-0.516-0.797-0.967-1.857-1.354-3.182c-0.504-1.793-0.756-3.645-0.756-5.555c0-2.59,0.363-4.969,1.09-7.137
		c0.598-1.793,1.506-3.167,2.725-4.122s2.508-1.433,3.867-1.433c1.383,0,2.675,0.472,3.876,1.415s2.083,2.212,2.646,3.806
		C238.227,753.983,238.619,756.38,238.619,758.981z M233.205,758.946c0-4.172-0.023-6.604-0.07-7.295
		c-0.117-1.629-0.398-2.73-0.844-3.305c-0.293-0.375-0.768-0.563-1.424-0.563c-0.504,0-0.902,0.141-1.195,0.422
		c-0.434,0.41-0.727,1.134-0.879,2.171s-0.229,4.655-0.229,10.854c0,3.375,0.117,5.637,0.352,6.785
		c0.176,0.832,0.428,1.389,0.756,1.67s0.762,0.422,1.301,0.422c0.586,0,1.025-0.188,1.318-0.563c0.492-0.656,0.773-1.67,0.844-3.041
		L233.205,758.946z"/>
	<path fill="#FFFFFF" d="M245.264,758.946v-0.615c1.336-0.387,2.262-0.747,2.777-1.081s0.961-0.844,1.336-1.529
		s0.563-1.38,0.563-2.083c0-0.973-0.354-1.808-1.063-2.505s-1.591-1.046-2.646-1.046c-1.641,0-3.035,0.867-4.184,2.602l-0.65-0.229
		c0.844-1.957,1.925-3.428,3.243-4.412s2.786-1.477,4.403-1.477c1.652,0,3.015,0.504,4.087,1.512s1.608,2.186,1.608,3.533
		c0,0.879-0.249,1.726-0.747,2.54s-1.28,1.532-2.347,2.153c1.371,0.668,2.417,1.491,3.138,2.47s1.081,2.206,1.081,3.683
		c0,2.484-0.899,4.597-2.698,6.337s-4.21,2.61-7.233,2.61c-2.016,0-3.486-0.334-4.412-1.002c-0.668-0.469-1.002-1.072-1.002-1.811
		c0-0.539,0.193-0.999,0.58-1.38s0.832-0.571,1.336-0.571c0.387,0,0.75,0.082,1.09,0.246c0.188,0.094,0.853,0.606,1.995,1.538
		s2.212,1.397,3.208,1.397c0.867,0,1.611-0.343,2.232-1.028s0.932-1.556,0.932-2.61c0-1.605-0.563-3.085-1.688-4.438
		S247.432,759.462,245.264,758.946z"/>
</g>
<g>
	<path fill="#FFFFFF" d="M355.348,1094.571v19.494c0,1.465,0.064,2.399,0.193,2.804s0.398,0.735,0.809,0.993
		s1.066,0.387,1.969,0.387h0.545v0.65h-12.551v-0.65h0.633c1.02,0,1.746-0.117,2.18-0.352s0.727-0.557,0.879-0.967
		s0.229-1.365,0.229-2.865v-12.357c0-1.102-0.053-1.79-0.158-2.065s-0.302-0.51-0.589-0.703s-0.618-0.29-0.993-0.29
		c-0.598,0-1.324,0.188-2.18,0.563l-0.316-0.633l8.771-4.008H355.348z"/>
	<path fill="#FFFFFF" d="M378.305,1106.981c0,2.379-0.334,4.6-1.002,6.662c-0.398,1.266-0.935,2.303-1.608,3.111
		s-1.438,1.45-2.294,1.925s-1.787,0.712-2.795,0.712c-1.148,0-2.186-0.293-3.111-0.879s-1.746-1.424-2.461-2.514
		c-0.516-0.797-0.967-1.857-1.354-3.182c-0.504-1.793-0.756-3.645-0.756-5.555c0-2.59,0.363-4.969,1.09-7.137
		c0.598-1.793,1.506-3.167,2.725-4.122s2.508-1.433,3.867-1.433c1.383,0,2.675,0.472,3.876,1.415s2.083,2.212,2.646,3.806
		C377.913,1101.983,378.305,1104.38,378.305,1106.981z M372.891,1106.946c0-4.172-0.023-6.604-0.07-7.295
		c-0.117-1.629-0.398-2.73-0.844-3.305c-0.293-0.375-0.768-0.563-1.424-0.563c-0.504,0-0.902,0.141-1.195,0.422
		c-0.434,0.41-0.727,1.134-0.879,2.171s-0.229,4.655-0.229,10.854c0,3.375,0.117,5.637,0.352,6.785
		c0.176,0.832,0.428,1.389,0.756,1.67s0.762,0.422,1.301,0.422c0.586,0,1.025-0.188,1.318-0.563c0.492-0.656,0.773-1.67,0.844-3.041
		L372.891,1106.946z"/>
	<path fill="#FFFFFF" d="M380.52,1109.917l11.32-15.346h2.145v15.346h2.18v3.639h-2.18v5.344h-4.834v-5.344h-8.631V1109.917z
		 M382.225,1109.917h6.926v-9.404L382.225,1109.917z"/>
</g>
<g>
	<path fill="#FFFFFF" d="M228.348,1262.326v19.494c0,1.465,0.064,2.399,0.193,2.804s0.398,0.735,0.809,0.993
		s1.066,0.387,1.969,0.387h0.545v0.65h-12.551v-0.65h0.633c1.02,0,1.746-0.117,2.18-0.352s0.727-0.557,0.879-0.967
		s0.229-1.365,0.229-2.865v-12.357c0-1.102-0.053-1.79-0.158-2.065s-0.302-0.51-0.589-0.703s-0.618-0.29-0.993-0.29
		c-0.598,0-1.324,0.188-2.18,0.563l-0.316-0.633l8.771-4.008H228.348z"/>
	<path fill="#FFFFFF" d="M251.305,1274.736c0,2.379-0.334,4.6-1.002,6.662c-0.398,1.266-0.935,2.303-1.608,3.111
		s-1.438,1.45-2.294,1.925s-1.787,0.712-2.795,0.712c-1.148,0-2.186-0.293-3.111-0.879s-1.746-1.424-2.461-2.514
		c-0.516-0.797-0.967-1.857-1.354-3.182c-0.504-1.793-0.756-3.645-0.756-5.555c0-2.59,0.363-4.969,1.09-7.137
		c0.598-1.793,1.506-3.167,2.725-4.122s2.508-1.433,3.867-1.433c1.383,0,2.675,0.472,3.876,1.415s2.083,2.212,2.646,3.806
		C250.913,1269.738,251.305,1272.135,251.305,1274.736z M245.891,1274.701c0-4.172-0.023-6.604-0.07-7.295
		c-0.117-1.629-0.398-2.73-0.844-3.305c-0.293-0.375-0.768-0.563-1.424-0.563c-0.504,0-0.902,0.141-1.195,0.422
		c-0.434,0.41-0.727,1.134-0.879,2.171s-0.229,4.655-0.229,10.854c0,3.375,0.117,5.637,0.352,6.785
		c0.176,0.832,0.428,1.389,0.756,1.67s0.762,0.422,1.301,0.422c0.586,0,1.025-0.188,1.318-0.563c0.492-0.656,0.773-1.67,0.844-3.041
		L245.891,1274.701z"/>
	<path fill="#FFFFFF" d="M258.108,1262.818h11.162l-1.775,4.535h-9.387l-0.896,2.373c4.043,0.152,7.154,1.16,9.334,3.023
		c1.793,1.535,2.689,3.445,2.689,5.73c0,1.465-0.416,2.897-1.248,4.298s-2.004,2.479-3.516,3.234s-3.17,1.134-4.975,1.134
		c-1.945,0-3.439-0.363-4.482-1.09c-0.727-0.516-1.09-1.102-1.09-1.758c0-0.504,0.19-0.949,0.571-1.336s0.823-0.58,1.327-0.58
		c0.457,0,0.92,0.094,1.389,0.281s1.271,0.68,2.408,1.477c0.715,0.492,1.33,0.832,1.846,1.02c0.363,0.141,0.773,0.211,1.23,0.211
		c0.961,0,1.778-0.352,2.452-1.055s1.011-1.547,1.011-2.531c0-2.063-1.031-3.738-3.094-5.027s-4.664-1.934-7.805-1.934
		c-0.316,0-0.791,0.006-1.424,0.018L258.108,1262.818z"/>
</g>
<g>
	<path fill="#FFFFFF" d="M359.348,1261.879v19.494c0,1.465,0.064,2.399,0.193,2.804s0.398,0.735,0.809,0.993
		s1.066,0.387,1.969,0.387h0.545v0.65h-12.551v-0.65h0.633c1.02,0,1.746-0.117,2.18-0.352s0.727-0.557,0.879-0.967
		s0.229-1.365,0.229-2.865v-12.357c0-1.102-0.053-1.79-0.158-2.065s-0.302-0.51-0.589-0.703s-0.618-0.29-0.993-0.29
		c-0.598,0-1.324,0.188-2.18,0.563l-0.316-0.633l8.771-4.008H359.348z"/>
	<path fill="#FFFFFF" d="M382.305,1274.289c0,2.379-0.334,4.6-1.002,6.662c-0.398,1.266-0.935,2.303-1.608,3.111
		s-1.438,1.45-2.294,1.925s-1.787,0.712-2.795,0.712c-1.148,0-2.186-0.293-3.111-0.879s-1.746-1.424-2.461-2.514
		c-0.516-0.797-0.967-1.857-1.354-3.182c-0.504-1.793-0.756-3.645-0.756-5.555c0-2.59,0.363-4.969,1.09-7.137
		c0.598-1.793,1.506-3.167,2.725-4.122s2.508-1.433,3.867-1.433c1.383,0,2.675,0.472,3.876,1.415s2.083,2.212,2.646,3.806
		C381.913,1269.291,382.305,1271.688,382.305,1274.289z M376.891,1274.254c0-4.172-0.023-6.604-0.07-7.295
		c-0.117-1.629-0.398-2.73-0.844-3.305c-0.293-0.375-0.768-0.563-1.424-0.563c-0.504,0-0.902,0.141-1.195,0.422
		c-0.434,0.41-0.727,1.134-0.879,2.171s-0.229,4.655-0.229,10.854c0,3.375,0.117,5.637,0.352,6.785
		c0.176,0.832,0.428,1.389,0.756,1.67s0.762,0.422,1.301,0.422c0.586,0,1.025-0.188,1.318-0.563c0.492-0.656,0.773-1.67,0.844-3.041
		L376.891,1274.254z"/>
	<path fill="#FFFFFF" d="M400.534,1261.879v0.492c-2.121,0.539-3.823,1.233-5.106,2.083s-2.297,1.881-3.041,3.094
		s-1.321,2.716-1.731,4.509c0.516-0.352,0.943-0.58,1.283-0.686c0.762-0.234,1.529-0.352,2.303-0.352
		c1.781,0,3.267,0.647,4.456,1.942s1.784,3.062,1.784,5.3c0,1.57-0.322,3.012-0.967,4.324s-1.559,2.326-2.742,3.041
		s-2.449,1.072-3.797,1.072c-1.465,0-2.818-0.401-4.061-1.204s-2.212-1.978-2.909-3.524s-1.046-3.229-1.046-5.045
		c0-2.672,0.642-5.159,1.925-7.462s3.105-4.137,5.467-5.502S397.44,1261.902,400.534,1261.879z M390.426,1273.48
		c-0.094,1.617-0.141,2.801-0.141,3.551c0,1.617,0.155,3.182,0.466,4.693s0.735,2.572,1.274,3.182
		c0.387,0.434,0.844,0.65,1.371,0.65c0.539,0,1.02-0.313,1.441-0.94s0.633-1.901,0.633-3.823c0-3.234-0.393-5.467-1.178-6.697
		c-0.504-0.797-1.184-1.195-2.039-1.195C391.786,1272.9,391.176,1273.094,390.426,1273.48z"/>
</g>
<g>
	<path fill="#FFFFFF" d="M337.348,1408.879v19.494c0,1.465,0.064,2.399,0.193,2.804s0.398,0.735,0.809,0.993
		s1.066,0.387,1.969,0.387h0.545v0.65h-12.551v-0.65h0.633c1.02,0,1.746-0.117,2.18-0.352s0.727-0.557,0.879-0.967
		s0.229-1.365,0.229-2.865v-12.357c0-1.102-0.053-1.79-0.158-2.065s-0.302-0.51-0.589-0.703s-0.618-0.29-0.993-0.29
		c-0.598,0-1.324,0.188-2.18,0.563l-0.316-0.633l8.771-4.008H337.348z"/>
	<path fill="#FFFFFF" d="M360.305,1421.289c0,2.379-0.334,4.6-1.002,6.662c-0.398,1.266-0.935,2.303-1.608,3.111
		s-1.438,1.45-2.294,1.925s-1.787,0.712-2.795,0.712c-1.148,0-2.186-0.293-3.111-0.879s-1.746-1.424-2.461-2.514
		c-0.516-0.797-0.967-1.857-1.354-3.182c-0.504-1.793-0.756-3.645-0.756-5.555c0-2.59,0.363-4.969,1.09-7.137
		c0.598-1.793,1.506-3.167,2.725-4.122s2.508-1.433,3.867-1.433c1.383,0,2.675,0.472,3.876,1.415s2.083,2.212,2.646,3.806
		C359.913,1416.291,360.305,1418.688,360.305,1421.289z M354.891,1421.254c0-4.172-0.023-6.604-0.07-7.295
		c-0.117-1.629-0.398-2.73-0.844-3.305c-0.293-0.375-0.768-0.563-1.424-0.563c-0.504,0-0.902,0.141-1.195,0.422
		c-0.434,0.41-0.727,1.134-0.879,2.171s-0.229,4.655-0.229,10.854c0,3.375,0.117,5.637,0.352,6.785
		c0.176,0.832,0.428,1.389,0.756,1.67s0.762,0.422,1.301,0.422c0.586,0,1.025-0.188,1.318-0.563c0.492-0.656,0.773-1.67,0.844-3.041
		L354.891,1421.254z"/>
	<path fill="#FFFFFF" d="M368.004,1433.699l6.486-19.67h-4.939c-1.934,0-3.387,0.252-4.359,0.756
		c-0.68,0.352-1.242,1.014-1.688,1.986h-0.668l1.723-7.4h14.203l-7.998,24.328H368.004z"/>
</g>
<g>
	<path fill="#FFFFFF" d="M252.848,1771.879v19.494c0,1.465,0.064,2.399,0.193,2.804s0.398,0.735,0.809,0.993
		s1.066,0.387,1.969,0.387h0.545v0.65h-12.551v-0.65h0.633c1.02,0,1.746-0.117,2.18-0.352s0.727-0.557,0.879-0.967
		s0.229-1.365,0.229-2.865v-12.357c0-1.102-0.053-1.79-0.158-2.065s-0.302-0.51-0.589-0.703s-0.618-0.29-0.993-0.29
		c-0.598,0-1.324,0.188-2.18,0.563l-0.316-0.633l8.771-4.008H252.848z"/>
	<path fill="#FFFFFF" d="M275.805,1784.289c0,2.379-0.334,4.6-1.002,6.662c-0.398,1.266-0.935,2.303-1.608,3.111
		s-1.438,1.45-2.294,1.925s-1.787,0.712-2.795,0.712c-1.148,0-2.186-0.293-3.111-0.879s-1.746-1.424-2.461-2.514
		c-0.516-0.797-0.967-1.857-1.354-3.182c-0.504-1.793-0.756-3.645-0.756-5.555c0-2.59,0.363-4.969,1.09-7.137
		c0.598-1.793,1.506-3.167,2.725-4.122s2.508-1.433,3.867-1.433c1.383,0,2.675,0.472,3.876,1.415s2.083,2.212,2.646,3.806
		C275.413,1779.291,275.805,1781.688,275.805,1784.289z M270.391,1784.254c0-4.172-0.023-6.604-0.07-7.295
		c-0.117-1.629-0.398-2.73-0.844-3.305c-0.293-0.375-0.768-0.563-1.424-0.563c-0.504,0-0.902,0.141-1.195,0.422
		c-0.434,0.41-0.727,1.134-0.879,2.171s-0.229,4.655-0.229,10.854c0,3.375,0.117,5.637,0.352,6.785
		c0.176,0.832,0.428,1.389,0.756,1.67s0.762,0.422,1.301,0.422c0.586,0,1.025-0.188,1.318-0.563c0.492-0.656,0.773-1.67,0.844-3.041
		L270.391,1784.254z"/>
	<path fill="#FFFFFF" d="M289.393,1782.742c1.676,1.23,2.839,2.376,3.489,3.437s0.976,2.276,0.976,3.647
		c0,1.922-0.724,3.548-2.171,4.878s-3.413,1.995-5.897,1.995c-2.355,0-4.178-0.58-5.467-1.74s-1.934-2.578-1.934-4.254
		c0-1.277,0.372-2.396,1.116-3.357s1.983-1.84,3.718-2.637c-1.887-1.441-3.097-2.619-3.63-3.533s-0.8-1.975-0.8-3.182
		c0-1.594,0.677-2.997,2.03-4.21s3.208-1.819,5.563-1.819c2.273,0,4.022,0.536,5.247,1.608s1.837,2.358,1.837,3.858
		c0,1.125-0.331,2.118-0.993,2.979S290.788,1782.051,289.393,1782.742z M284.542,1785.555c-0.363,0.328-0.621,0.627-0.773,0.896
		c-0.234,0.41-0.445,1.008-0.633,1.793s-0.281,1.605-0.281,2.461c0,1.102,0.141,2.024,0.422,2.769s0.683,1.28,1.204,1.608
		s1.058,0.492,1.608,0.492c0.855,0,1.576-0.313,2.162-0.94s0.879-1.485,0.879-2.575
		C289.129,1789.785,287.6,1787.617,284.542,1785.555z M288.057,1781.846c0.434-0.586,0.756-1.242,0.967-1.969
		s0.316-1.523,0.316-2.391c0-1.523-0.328-2.689-0.984-3.498c-0.492-0.621-1.172-0.932-2.039-0.932c-0.785,0-1.453,0.284-2.004,0.853
		s-0.826,1.274-0.826,2.118c0,0.855,0.308,1.743,0.923,2.663S286.241,1780.662,288.057,1781.846z"/>
</g>
<g>
	<path fill="#FFFFFF" d="M399.348,1771.879v19.494c0,1.465,0.064,2.399,0.193,2.804s0.398,0.735,0.809,0.993
		s1.066,0.387,1.969,0.387h0.545v0.65h-12.551v-0.65h0.633c1.02,0,1.746-0.117,2.18-0.352s0.727-0.557,0.879-0.967
		s0.229-1.365,0.229-2.865v-12.357c0-1.102-0.053-1.79-0.158-2.065s-0.302-0.51-0.589-0.703s-0.618-0.29-0.993-0.29
		c-0.598,0-1.324,0.188-2.18,0.563l-0.316-0.633l8.771-4.008H399.348z"/>
	<path fill="#FFFFFF" d="M422.305,1784.289c0,2.379-0.334,4.6-1.002,6.662c-0.398,1.266-0.935,2.303-1.608,3.111
		s-1.438,1.45-2.294,1.925s-1.787,0.712-2.795,0.712c-1.148,0-2.186-0.293-3.111-0.879s-1.746-1.424-2.461-2.514
		c-0.516-0.797-0.967-1.857-1.354-3.182c-0.504-1.793-0.756-3.645-0.756-5.555c0-2.59,0.363-4.969,1.09-7.137
		c0.598-1.793,1.506-3.167,2.725-4.122s2.508-1.433,3.867-1.433c1.383,0,2.675,0.472,3.876,1.415s2.083,2.212,2.646,3.806
		C421.913,1779.291,422.305,1781.688,422.305,1784.289z M416.891,1784.254c0-4.172-0.023-6.604-0.07-7.295
		c-0.117-1.629-0.398-2.73-0.844-3.305c-0.293-0.375-0.768-0.563-1.424-0.563c-0.504,0-0.902,0.141-1.195,0.422
		c-0.434,0.41-0.727,1.134-0.879,2.171s-0.229,4.655-0.229,10.854c0,3.375,0.117,5.637,0.352,6.785
		c0.176,0.832,0.428,1.389,0.756,1.67s0.762,0.422,1.301,0.422c0.586,0,1.025-0.188,1.318-0.563c0.492-0.656,0.773-1.67,0.844-3.041
		L416.891,1784.254z"/>
	<path fill="#FFFFFF" d="M424.731,1796.699v-0.492c1.945-0.445,3.595-1.102,4.948-1.969s2.426-1.939,3.217-3.217
		s1.345-2.748,1.661-4.412c-0.727,0.375-1.345,0.636-1.854,0.782s-1.046,0.22-1.608,0.22c-1.805,0-3.308-0.65-4.509-1.951
		s-1.802-3.082-1.802-5.344c0-1.57,0.325-3.009,0.976-4.315s1.579-2.32,2.786-3.041s2.461-1.081,3.762-1.081
		c1.395,0,2.713,0.398,3.955,1.195s2.232,1.951,2.971,3.463s1.107,3.234,1.107,5.168c0,2.508-0.601,4.91-1.802,7.207
		s-2.991,4.14-5.37,5.528S427.977,1796.582,424.731,1796.699z M434.821,1785.133c0.117-1.313,0.176-2.467,0.176-3.463
		c0-2.133-0.246-4.119-0.738-5.959c-0.281-1.02-0.697-1.77-1.248-2.25c-0.293-0.258-0.674-0.387-1.143-0.387
		c-0.586,0-1.043,0.252-1.371,0.756c-0.457,0.691-0.686,2.01-0.686,3.955c0,3.246,0.387,5.484,1.16,6.715
		c0.504,0.797,1.184,1.195,2.039,1.195C433.467,1785.695,434.071,1785.508,434.821,1785.133z"/>
</g>
<g>
	<path fill="#FFFFFF" d="M550.348,1771.879v19.494c0,1.465,0.064,2.399,0.193,2.804s0.398,0.735,0.809,0.993
		s1.066,0.387,1.969,0.387h0.545v0.65h-12.551v-0.65h0.633c1.02,0,1.746-0.117,2.18-0.352s0.727-0.557,0.879-0.967
		s0.229-1.365,0.229-2.865v-12.357c0-1.102-0.053-1.79-0.158-2.065s-0.302-0.51-0.589-0.703s-0.618-0.29-0.993-0.29
		c-0.598,0-1.324,0.188-2.18,0.563l-0.316-0.633l8.771-4.008H550.348z"/>
	<path fill="#FFFFFF" d="M566.362,1771.879v19.494c0,1.465,0.064,2.399,0.193,2.804s0.398,0.735,0.809,0.993
		s1.066,0.387,1.969,0.387h0.545v0.65h-12.551v-0.65h0.633c1.02,0,1.746-0.117,2.18-0.352s0.727-0.557,0.879-0.967
		s0.229-1.365,0.229-2.865v-12.357c0-1.102-0.053-1.79-0.158-2.065s-0.302-0.51-0.589-0.703s-0.618-0.29-0.993-0.29
		c-0.598,0-1.324,0.188-2.18,0.563l-0.316-0.633l8.771-4.008H566.362z"/>
	<path fill="#FFFFFF" d="M589.319,1784.289c0,2.379-0.334,4.6-1.002,6.662c-0.398,1.266-0.935,2.303-1.608,3.111
		s-1.438,1.45-2.294,1.925s-1.787,0.712-2.795,0.712c-1.148,0-2.186-0.293-3.111-0.879s-1.746-1.424-2.461-2.514
		c-0.516-0.797-0.967-1.857-1.354-3.182c-0.504-1.793-0.756-3.645-0.756-5.555c0-2.59,0.363-4.969,1.09-7.137
		c0.598-1.793,1.506-3.167,2.725-4.122s2.508-1.433,3.867-1.433c1.383,0,2.675,0.472,3.876,1.415s2.083,2.212,2.646,3.806
		C588.926,1779.291,589.319,1781.688,589.319,1784.289z M583.905,1784.254c0-4.172-0.023-6.604-0.07-7.295
		c-0.117-1.629-0.398-2.73-0.844-3.305c-0.293-0.375-0.768-0.563-1.424-0.563c-0.504,0-0.902,0.141-1.195,0.422
		c-0.434,0.41-0.727,1.134-0.879,2.171s-0.229,4.655-0.229,10.854c0,3.375,0.117,5.637,0.352,6.785
		c0.176,0.832,0.428,1.389,0.756,1.67s0.762,0.422,1.301,0.422c0.586,0,1.025-0.188,1.318-0.563c0.492-0.656,0.773-1.67,0.844-3.041
		L583.905,1784.254z"/>
</g>
<g>
	<path fill="#FFFFFF" d="M694.348,1940.879v19.494c0,1.465,0.064,2.399,0.193,2.804s0.398,0.735,0.809,0.993
		s1.066,0.387,1.969,0.387h0.545v0.65h-12.551v-0.65h0.633c1.02,0,1.746-0.117,2.18-0.352s0.727-0.557,0.879-0.967
		s0.229-1.365,0.229-2.865v-12.357c0-1.102-0.053-1.79-0.158-2.065s-0.302-0.51-0.589-0.703s-0.618-0.29-0.993-0.29
		c-0.598,0-1.324,0.188-2.18,0.563l-0.316-0.633l8.771-4.008H694.348z"/>
	<path fill="#FFFFFF" d="M710.362,1940.879v19.494c0,1.465,0.064,2.399,0.193,2.804s0.398,0.735,0.809,0.993
		s1.066,0.387,1.969,0.387h0.545v0.65h-12.551v-0.65h0.633c1.02,0,1.746-0.117,2.18-0.352s0.727-0.557,0.879-0.967
		s0.229-1.365,0.229-2.865v-12.357c0-1.102-0.053-1.79-0.158-2.065s-0.302-0.51-0.589-0.703s-0.618-0.29-0.993-0.29
		c-0.598,0-1.324,0.188-2.18,0.563l-0.316-0.633l8.771-4.008H710.362z"/>
	<path fill="#FFFFFF" d="M726.375,1940.879v19.494c0,1.465,0.064,2.399,0.193,2.804s0.398,0.735,0.809,0.993
		s1.066,0.387,1.969,0.387h0.545v0.65H717.34v-0.65h0.633c1.02,0,1.746-0.117,2.18-0.352s0.727-0.557,0.879-0.967
		s0.229-1.365,0.229-2.865v-12.357c0-1.102-0.053-1.79-0.158-2.065s-0.302-0.51-0.589-0.703s-0.618-0.29-0.993-0.29
		c-0.598,0-1.324,0.188-2.18,0.563l-0.316-0.633l8.771-4.008H726.375z"/>
</g>
<g>
	<path fill="#FFFFFF" d="M884.348,1819.814v19.494c0,1.465,0.064,2.399,0.193,2.804s0.398,0.735,0.809,0.993
		s1.066,0.387,1.969,0.387h0.545v0.65h-12.551v-0.65h0.633c1.02,0,1.746-0.117,2.18-0.352s0.727-0.557,0.879-0.967
		s0.229-1.365,0.229-2.865v-12.357c0-1.102-0.053-1.79-0.158-2.065s-0.302-0.51-0.589-0.703s-0.618-0.29-0.993-0.29
		c-0.598,0-1.324,0.188-2.18,0.563l-0.316-0.633l8.771-4.008H884.348z"/>
	<path fill="#FFFFFF" d="M900.362,1819.814v19.494c0,1.465,0.064,2.399,0.193,2.804s0.398,0.735,0.809,0.993
		s1.066,0.387,1.969,0.387h0.545v0.65h-12.551v-0.65h0.633c1.02,0,1.746-0.117,2.18-0.352s0.727-0.557,0.879-0.967
		s0.229-1.365,0.229-2.865v-12.357c0-1.102-0.053-1.79-0.158-2.065s-0.302-0.51-0.589-0.703s-0.618-0.29-0.993-0.29
		c-0.598,0-1.324,0.188-2.18,0.563l-0.316-0.633l8.771-4.008H900.362z"/>
	<path fill="#FFFFFF" d="M921.543,1844.143h-14.027v-0.387c4.301-5.121,6.911-8.566,7.831-10.336s1.38-3.498,1.38-5.186
		c0-1.23-0.381-2.253-1.143-3.067s-1.693-1.222-2.795-1.222c-1.805,0-3.205,0.902-4.201,2.707l-0.65-0.229
		c0.633-2.25,1.594-3.914,2.883-4.992s2.777-1.617,4.465-1.617c1.207,0,2.309,0.281,3.305,0.844s1.775,1.333,2.338,2.312
		s0.844,1.896,0.844,2.751c0,1.559-0.434,3.141-1.301,4.746c-1.184,2.168-3.768,5.191-7.752,9.07h5.15
		c1.266,0,2.089-0.053,2.47-0.158s0.694-0.284,0.94-0.536s0.568-0.782,0.967-1.591h0.633L921.543,1844.143z"/>
</g>
<g>
	<path fill="#FFFFFF" d="M1055.348,1613.814v19.494c0,1.465,0.064,2.399,0.193,2.804s0.398,0.735,0.809,0.993
		s1.066,0.387,1.969,0.387h0.545v0.65h-12.551v-0.65h0.633c1.02,0,1.746-0.117,2.18-0.352s0.727-0.557,0.879-0.967
		s0.229-1.365,0.229-2.865v-12.357c0-1.102-0.053-1.79-0.158-2.065s-0.302-0.51-0.589-0.703s-0.618-0.29-0.993-0.29
		c-0.598,0-1.324,0.188-2.18,0.563l-0.316-0.633l8.771-4.008H1055.348z"/>
	<path fill="#FFFFFF" d="M1071.362,1613.814v19.494c0,1.465,0.064,2.399,0.193,2.804s0.398,0.735,0.809,0.993
		s1.066,0.387,1.969,0.387h0.545v0.65h-12.551v-0.65h0.633c1.02,0,1.746-0.117,2.18-0.352s0.727-0.557,0.879-0.967
		s0.229-1.365,0.229-2.865v-12.357c0-1.102-0.053-1.79-0.158-2.065s-0.302-0.51-0.589-0.703s-0.618-0.29-0.993-0.29
		c-0.598,0-1.324,0.188-2.18,0.563l-0.316-0.633l8.771-4.008H1071.362z"/>
	<path fill="#FFFFFF" d="M1082.963,1626.189v-0.615c1.336-0.387,2.262-0.747,2.777-1.081s0.961-0.844,1.336-1.529
		s0.563-1.38,0.563-2.083c0-0.973-0.354-1.808-1.063-2.505s-1.591-1.046-2.646-1.046c-1.641,0-3.035,0.867-4.184,2.602l-0.65-0.229
		c0.844-1.957,1.925-3.428,3.243-4.412s2.786-1.477,4.403-1.477c1.652,0,3.015,0.504,4.087,1.512s1.608,2.186,1.608,3.533
		c0,0.879-0.249,1.726-0.747,2.54s-1.28,1.532-2.347,2.153c1.371,0.668,2.417,1.491,3.138,2.47s1.081,2.206,1.081,3.683
		c0,2.484-0.899,4.597-2.698,6.337s-4.21,2.61-7.233,2.61c-2.016,0-3.486-0.334-4.412-1.002c-0.668-0.469-1.002-1.072-1.002-1.811
		c0-0.539,0.193-0.999,0.58-1.38s0.832-0.571,1.336-0.571c0.387,0,0.75,0.082,1.09,0.246c0.188,0.094,0.853,0.606,1.995,1.538
		s2.212,1.397,3.208,1.397c0.867,0,1.611-0.343,2.232-1.028s0.932-1.556,0.932-2.61c0-1.605-0.563-3.085-1.688-4.438
		S1085.131,1626.705,1082.963,1626.189z"/>
</g>
<g>
	<path fill="#FFFFFF" d="M1006.348,1416.814v19.494c0,1.465,0.064,2.399,0.193,2.804s0.398,0.735,0.809,0.993
		s1.066,0.387,1.969,0.387h0.545v0.65h-12.551v-0.65h0.633c1.02,0,1.746-0.117,2.18-0.352s0.727-0.557,0.879-0.967
		s0.229-1.365,0.229-2.865v-12.357c0-1.102-0.053-1.79-0.158-2.065s-0.302-0.51-0.589-0.703s-0.618-0.29-0.993-0.29
		c-0.598,0-1.324,0.188-2.18,0.563l-0.316-0.633l8.771-4.008H1006.348z"/>
	<path fill="#FFFFFF" d="M1022.362,1416.814v19.494c0,1.465,0.064,2.399,0.193,2.804s0.398,0.735,0.809,0.993
		s1.066,0.387,1.969,0.387h0.545v0.65h-12.551v-0.65h0.633c1.02,0,1.746-0.117,2.18-0.352s0.727-0.557,0.879-0.967
		s0.229-1.365,0.229-2.865v-12.357c0-1.102-0.053-1.79-0.158-2.065s-0.302-0.51-0.589-0.703s-0.618-0.29-0.993-0.29
		c-0.598,0-1.324,0.188-2.18,0.563l-0.316-0.633l8.771-4.008H1022.362z"/>
	<path fill="#FFFFFF" d="M1029.534,1432.16l11.32-15.346h2.145v15.346h2.18v3.639h-2.18v5.344h-4.834v-5.344h-8.631V1432.16z
		 M1031.239,1432.16h6.926v-9.404L1031.239,1432.16z"/>
</g>
<g>
	<path fill="#FFFFFF" d="M937.348,1107.814v19.494c0,1.465,0.064,2.399,0.193,2.804s0.398,0.735,0.809,0.993
		s1.066,0.387,1.969,0.387h0.545v0.65h-12.551v-0.65h0.633c1.02,0,1.746-0.117,2.18-0.352s0.727-0.557,0.879-0.967
		s0.229-1.365,0.229-2.865v-12.357c0-1.102-0.053-1.79-0.158-2.065s-0.302-0.51-0.589-0.703s-0.618-0.29-0.993-0.29
		c-0.598,0-1.324,0.188-2.18,0.563l-0.316-0.633l8.771-4.008H937.348z"/>
	<path fill="#FFFFFF" d="M953.362,1107.814v19.494c0,1.465,0.064,2.399,0.193,2.804s0.398,0.735,0.809,0.993
		s1.066,0.387,1.969,0.387h0.545v0.65h-12.551v-0.65h0.633c1.02,0,1.746-0.117,2.18-0.352s0.727-0.557,0.879-0.967
		s0.229-1.365,0.229-2.865v-12.357c0-1.102-0.053-1.79-0.158-2.065s-0.302-0.51-0.589-0.703s-0.618-0.29-0.993-0.29
		c-0.598,0-1.324,0.188-2.18,0.563l-0.316-0.633l8.771-4.008H953.362z"/>
	<path fill="#FFFFFF" d="M965.122,1108.307h11.162l-1.775,4.535h-9.387l-0.896,2.373c4.043,0.152,7.154,1.16,9.334,3.023
		c1.793,1.535,2.689,3.445,2.689,5.73c0,1.465-0.416,2.897-1.248,4.298s-2.004,2.479-3.516,3.234s-3.17,1.134-4.975,1.134
		c-1.945,0-3.439-0.363-4.482-1.09c-0.727-0.516-1.09-1.102-1.09-1.758c0-0.504,0.19-0.949,0.571-1.336s0.823-0.58,1.327-0.58
		c0.457,0,0.92,0.094,1.389,0.281s1.271,0.68,2.408,1.477c0.715,0.492,1.33,0.832,1.846,1.02c0.363,0.141,0.773,0.211,1.23,0.211
		c0.961,0,1.778-0.352,2.452-1.055s1.011-1.547,1.011-2.531c0-2.063-1.031-3.738-3.094-5.027s-4.664-1.934-7.805-1.934
		c-0.316,0-0.791,0.006-1.424,0.018L965.122,1108.307z"/>
</g>
<g>
	<path fill="#FFFFFF" d="M1059.348,1107.814v19.494c0,1.465,0.064,2.399,0.193,2.804s0.398,0.735,0.809,0.993
		s1.066,0.387,1.969,0.387h0.545v0.65h-12.551v-0.65h0.633c1.02,0,1.746-0.117,2.18-0.352s0.727-0.557,0.879-0.967
		s0.229-1.365,0.229-2.865v-12.357c0-1.102-0.053-1.79-0.158-2.065s-0.302-0.51-0.589-0.703s-0.618-0.29-0.993-0.29
		c-0.598,0-1.324,0.188-2.18,0.563l-0.316-0.633l8.771-4.008H1059.348z"/>
	<path fill="#FFFFFF" d="M1075.362,1107.814v19.494c0,1.465,0.064,2.399,0.193,2.804s0.398,0.735,0.809,0.993
		s1.066,0.387,1.969,0.387h0.545v0.65h-12.551v-0.65h0.633c1.02,0,1.746-0.117,2.18-0.352s0.727-0.557,0.879-0.967
		s0.229-1.365,0.229-2.865v-12.357c0-1.102-0.053-1.79-0.158-2.065s-0.302-0.51-0.589-0.703s-0.618-0.29-0.993-0.29
		c-0.598,0-1.324,0.188-2.18,0.563l-0.316-0.633l8.771-4.008H1075.362z"/>
	<path fill="#FFFFFF" d="M1098.547,1107.814v0.492c-2.121,0.539-3.823,1.233-5.106,2.083s-2.297,1.881-3.041,3.094
		s-1.321,2.716-1.731,4.509c0.516-0.352,0.943-0.58,1.283-0.686c0.762-0.234,1.529-0.352,2.303-0.352
		c1.781,0,3.267,0.647,4.456,1.942s1.784,3.062,1.784,5.3c0,1.57-0.322,3.012-0.967,4.324s-1.559,2.326-2.742,3.041
		s-2.449,1.072-3.797,1.072c-1.465,0-2.818-0.401-4.061-1.204s-2.212-1.978-2.909-3.524s-1.046-3.229-1.046-5.045
		c0-2.672,0.642-5.159,1.925-7.462s3.105-4.137,5.467-5.502S1095.454,1107.838,1098.547,1107.814z M1088.44,1119.416
		c-0.094,1.617-0.141,2.801-0.141,3.551c0,1.617,0.155,3.182,0.466,4.693s0.735,2.572,1.274,3.182
		c0.387,0.434,0.844,0.65,1.371,0.65c0.539,0,1.02-0.313,1.441-0.94s0.633-1.901,0.633-3.823c0-3.234-0.393-5.467-1.178-6.697
		c-0.504-0.797-1.184-1.195-2.039-1.195C1089.799,1118.836,1089.19,1119.029,1088.44,1119.416z"/>
</g>
<g>
	<path fill="#FFFFFF" d="M771.276,673.814v19.494c0,1.465,0.064,2.399,0.193,2.804s0.398,0.735,0.809,0.993s1.066,0.387,1.969,0.387
		h0.545v0.65h-12.551v-0.65h0.633c1.02,0,1.746-0.117,2.18-0.352s0.727-0.557,0.879-0.967s0.229-1.365,0.229-2.865v-12.357
		c0-1.102-0.053-1.79-0.158-2.065s-0.302-0.51-0.589-0.703s-0.618-0.29-0.993-0.29c-0.598,0-1.324,0.188-2.18,0.563l-0.316-0.633
		l8.771-4.008H771.276z"/>
	<path fill="#FFFFFF" d="M787.29,673.814v19.494c0,1.465,0.064,2.399,0.193,2.804s0.398,0.735,0.809,0.993s1.066,0.387,1.969,0.387
		h0.545v0.65h-12.551v-0.65h0.633c1.02,0,1.746-0.117,2.18-0.352s0.727-0.557,0.879-0.967s0.229-1.365,0.229-2.865v-12.357
		c0-1.102-0.053-1.79-0.158-2.065s-0.302-0.51-0.589-0.703s-0.618-0.29-0.993-0.29c-0.598,0-1.324,0.188-2.18,0.563l-0.316-0.633
		l8.771-4.008H787.29z"/>
	<path fill="#FFFFFF" d="M799.946,698.635l6.486-19.67h-4.939c-1.934,0-3.387,0.252-4.359,0.756
		c-0.68,0.352-1.242,1.014-1.688,1.986h-0.668l1.723-7.4h14.203l-7.998,24.328H799.946z"/>
</g>
<g>
	<path fill="#FFFFFF" d="M776.276,365.814v19.494c0,1.465,0.064,2.399,0.193,2.804s0.398,0.735,0.809,0.993s1.066,0.387,1.969,0.387
		h0.545v0.65h-12.551v-0.65h0.633c1.02,0,1.746-0.117,2.18-0.352s0.727-0.557,0.879-0.967s0.229-1.365,0.229-2.865v-12.357
		c0-1.102-0.053-1.79-0.158-2.065s-0.302-0.51-0.589-0.703s-0.618-0.29-0.993-0.29c-0.598,0-1.324,0.188-2.18,0.563l-0.316-0.633
		l8.771-4.008H776.276z"/>
	<path fill="#FFFFFF" d="M792.29,365.814v19.494c0,1.465,0.064,2.399,0.193,2.804s0.398,0.735,0.809,0.993s1.066,0.387,1.969,0.387
		h0.545v0.65h-12.551v-0.65h0.633c1.02,0,1.746-0.117,2.18-0.352s0.727-0.557,0.879-0.967s0.229-1.365,0.229-2.865v-12.357
		c0-1.102-0.053-1.79-0.158-2.065s-0.302-0.51-0.589-0.703s-0.618-0.29-0.993-0.29c-0.598,0-1.324,0.188-2.18,0.563l-0.316-0.633
		l8.771-4.008H792.29z"/>
	<path fill="#FFFFFF" d="M810.834,376.678c1.676,1.23,2.839,2.376,3.489,3.437s0.976,2.276,0.976,3.647
		c0,1.922-0.724,3.548-2.171,4.878s-3.413,1.995-5.897,1.995c-2.355,0-4.178-0.58-5.467-1.74s-1.934-2.578-1.934-4.254
		c0-1.277,0.372-2.396,1.116-3.357s1.983-1.84,3.718-2.637c-1.887-1.441-3.097-2.619-3.63-3.533s-0.8-1.975-0.8-3.182
		c0-1.594,0.677-2.997,2.03-4.21s3.208-1.819,5.563-1.819c2.273,0,4.022,0.536,5.247,1.608s1.837,2.358,1.837,3.858
		c0,1.125-0.331,2.118-0.993,2.979S812.229,375.986,810.834,376.678z M805.983,379.49c-0.363,0.328-0.621,0.627-0.773,0.896
		c-0.234,0.41-0.445,1.008-0.633,1.793s-0.281,1.605-0.281,2.461c0,1.102,0.141,2.024,0.422,2.769s0.683,1.28,1.204,1.608
		s1.058,0.492,1.608,0.492c0.855,0,1.576-0.313,2.162-0.94s0.879-1.485,0.879-2.575C810.571,383.721,809.042,381.553,805.983,379.49
		z M809.499,375.781c0.434-0.586,0.756-1.242,0.967-1.969s0.316-1.523,0.316-2.391c0-1.523-0.328-2.689-0.984-3.498
		c-0.492-0.621-1.172-0.932-2.039-0.932c-0.785,0-1.453,0.284-2.004,0.853s-0.826,1.274-0.826,2.118
		c0,0.855,0.308,1.743,0.923,2.663S807.682,374.598,809.499,375.781z"/>
</g>
<g>
	<path fill="#FFFFFF" d="M1026.276,365.814v19.494c0,1.465,0.064,2.399,0.193,2.804s0.398,0.735,0.809,0.993
		s1.066,0.387,1.969,0.387h0.545v0.65h-12.551v-0.65h0.633c1.02,0,1.746-0.117,2.18-0.352s0.727-0.557,0.879-0.967
		s0.229-1.365,0.229-2.865v-12.357c0-1.102-0.053-1.79-0.158-2.065s-0.302-0.51-0.589-0.703s-0.618-0.29-0.993-0.29
		c-0.598,0-1.324,0.188-2.18,0.563l-0.316-0.633l8.771-4.008H1026.276z"/>
	<path fill="#FFFFFF" d="M1042.29,365.814v19.494c0,1.465,0.064,2.399,0.193,2.804s0.398,0.735,0.809,0.993s1.066,0.387,1.969,0.387
		h0.545v0.65h-12.551v-0.65h0.633c1.02,0,1.746-0.117,2.18-0.352s0.727-0.557,0.879-0.967s0.229-1.365,0.229-2.865v-12.357
		c0-1.102-0.053-1.79-0.158-2.065s-0.302-0.51-0.589-0.703s-0.618-0.29-0.993-0.29c-0.598,0-1.324,0.188-2.18,0.563l-0.316-0.633
		l8.771-4.008H1042.29z"/>
	<path fill="#FFFFFF" d="M1049.672,390.635v-0.492c1.945-0.445,3.595-1.102,4.948-1.969s2.426-1.939,3.217-3.217
		s1.345-2.748,1.661-4.412c-0.727,0.375-1.345,0.636-1.854,0.782s-1.046,0.22-1.608,0.22c-1.805,0-3.308-0.65-4.509-1.951
		s-1.802-3.082-1.802-5.344c0-1.57,0.325-3.009,0.976-4.315s1.579-2.32,2.786-3.041s2.461-1.081,3.762-1.081
		c1.395,0,2.713,0.398,3.955,1.195s2.232,1.951,2.971,3.463s1.107,3.234,1.107,5.168c0,2.508-0.601,4.91-1.802,7.207
		s-2.991,4.14-5.37,5.528S1052.918,390.518,1049.672,390.635z M1059.762,379.068c0.117-1.313,0.176-2.467,0.176-3.463
		c0-2.133-0.246-4.119-0.738-5.959c-0.281-1.02-0.697-1.77-1.248-2.25c-0.293-0.258-0.674-0.387-1.143-0.387
		c-0.586,0-1.043,0.252-1.371,0.756c-0.457,0.691-0.686,2.01-0.686,3.955c0,3.246,0.387,5.484,1.16,6.715
		c0.504,0.797,1.184,1.195,2.039,1.195C1058.409,379.631,1059.012,379.443,1059.762,379.068z"/>
</g>
</svg>
